<?xml version="1.0" encoding="UTF-8" standalone="no"?>
<!-- Created with Inkscape (http://www.inkscape.org/) -->

<svg
   xmlns:dc="http://purl.org/dc/elements/1.1/"
   xmlns:cc="http://creativecommons.org/ns#"
   xmlns:rdf="http://www.w3.org/1999/02/22-rdf-syntax-ns#"
   xmlns:svg="http://www.w3.org/2000/svg"
   xmlns="http://www.w3.org/2000/svg"
   xmlns:sodipodi="http://sodipodi.sourceforge.net/DTD/sodipodi-0.dtd"
   xmlns:inkscape="http://www.inkscape.org/namespaces/inkscape"
   width="300"
   height="250"
   id="svg3011"
   version="1.1"
   inkscape:version="0.91 r13725"
   sodipodi:docname="taiko.svg">
  <defs
     id="defs3013" />
  <sodipodi:namedview
     id="base"
     pagecolor="#ffffff"
     bordercolor="#666666"
     borderopacity="1.0"
     inkscape:pageopacity="0.0"
     inkscape:pageshadow="2"
     inkscape:zoom="2.8284271"
     inkscape:cx="183.05446"
     inkscape:cy="53.481216"
     inkscape:document-units="px"
     inkscape:current-layer="layer1"
     showgrid="false"
     inkscape:window-width="2876"
     inkscape:window-height="1570"
     inkscape:window-x="0"
     inkscape:window-y="22"
     inkscape:window-maximized="0"
     units="px"
     showguides="true"
     inkscape:guide-bbox="true" />
  <metadata
     id="metadata3016">
    <rdf:RDF>
      <cc:Work
         rdf:about="">
        <dc:format>image/svg+xml</dc:format>
        <dc:type
           rdf:resource="http://purl.org/dc/dcmitype/StillImage" />
        <dc:title />
      </cc:Work>
    </rdf:RDF>
  </metadata>
  <g
     inkscape:groupmode="layer"
     id="layer12"
     inkscape:label="meta"
     style="display:inline">
    <rect
       style="fill:#6bbec7;fill-opacity:1;stroke:none"
       id="remove_background"
       width="36"
       height="30.75"
       x="261.25"
       y="140.25"
       inkscape:label="#rect5904" />
    <rect
       style="fill:#6bbec7;fill-opacity:1;stroke:none"
       id="sequential_animation"
       width="35"
       height="29.25"
       x="261"
       y="192.25"
       inkscape:label="#rect5906" />
  </g>
  <g
     inkscape:label="bg"
     inkscape:groupmode="layer"
     id="layer1"
     transform="translate(0,-802.3609)"
     style="display:inline" />
  <g
     inkscape:groupmode="layer"
     id="layer9"
     inkscape:label="idle"
     style="display:inline"
     transform="translate(0,70)">
    <g
       style="display:inline"
       id="idle"
       transform="matrix(2.5125628,0,0,2.5125628,-123.42965,-558.9797)"
       inkscape:label="#g5354">
      <path
         inkscape:connector-curvature="0"
         id="path5350"
         d="m 51.265242,239.95617 7.071068,-14.14214 14.760854,-7.15946 c 0,0 8.66206,-2.38648 10.07627,-2.56326 1.41421,-0.17678 19.445436,-1.41421 19.445436,-1.41421 l 16.617,2.03293 10.60661,4.24264 11.22532,9.54594 5.65685,13.08148 0.26517,9.89949 -3.53554,12.90471 -5.39169,7.15945 -1.59099,1.5026 1.06066,4.77297 2.2981,3.88909 1.59099,2.74004 -1.67938,3.97748 -2.82843,2.12132 -3.18198,0.17677 -4.06586,-1.85615 -1.85616,-2.38649 -0.0884,-2.12132 1.5026,-2.82842 1.59099,-1.85616 -1.14905,-2.38649 -9.45755,3.88909 -7.68979,1.85616 -2.38649,0.0884 -1.06066,2.38648 -1.5026,2.47487 -2.29809,1.85616 -3.00521,0 -2.474866,-0.7955 -1.14905,-0.88388 -2.12132,2.38649 -1.94454,0.53033 -2.82843,-0.26517 -3.0052,-0.79549 -1.67938,-1.94455 -0.97227,-1.94454 0.26516,-3.0052 -8.13173,-1.59099 -10.34143,-4.06587 -0.97227,-0.97227 -0.0884,2.56326 1.5026,2.12132 1.67938,2.56326 -0.35356,2.74004 -1.32582,2.56326 -3.09359,1.59099 -3.53554,-0.53033 -3.62392,-2.29809 -1.06066,-2.74004 0.176776,-1.94454 1.325826,-1.67938 1.502601,-0.97228 0.618719,-2.47487 0.53033,-5.92202 -4.507806,-4.15425 -4.507805,-7.07107 -1.856156,-9.54594 0.265165,-6.54074 z"
         style="fill:#fff0e8;fill-opacity:1;stroke:none" />
      <path
         transform="matrix(1.0154185,0,0,1.0517928,-3.9496356,157.24769)"
         d="M 141.50974,88.972122 A 20.064156,22.185474 0 0 1 121.44559,111.1576 20.064156,22.185474 0 0 1 101.38143,88.972122 20.064156,22.185474 0 0 1 121.44559,66.786648 20.064156,22.185474 0 0 1 141.50974,88.972122 Z"
         sodipodi:ry="22.185474"
         sodipodi:rx="20.064156"
         sodipodi:cy="88.972122"
         sodipodi:cx="121.44559"
         id="path5348"
         style="fill:#ff401b;fill-opacity:1;stroke:none"
         sodipodi:type="arc" />
      <path
         transform="translate(0,164.33069)"
         inkscape:connector-curvature="0"
         id="path5352"
         d="m 75.3125,53.1875 -4.5,3.3125 -4.3125,3.8125 -4.375,4.75 -3.5625,4.8125 -3.25,9.125 -0.5625,5.125 0.1875,5.75 1.5625,6.1875 4.1875,8.75 4.4375,5.8125 4.5,4.9375 16,5.375 1.5625,-0.25 1.3125,-1.625 1.5625,-0.5625 0.3125,-0.1875 0.1875,-3.75 1.25,-4.25 1.0625,-0.625 1.375,0 0.8125,1.25 0.875,2.625 0.3125,3.9375 0.4375,0.875 1.25,0.875 1.1875,1.5 0.6875,0.1875 9.6875,-0.3125 3.875,-0.875 c 0,0 -3.3125,-1.0625 -3.5625,-1.125 -0.25,-0.0625 -7.5,-2.6875 -7.5,-2.6875 0,0 -3.4375,-2.8125 -3.75,-3 -0.3125,-0.1875 -4.5,-3.3125 -4.5,-3.3125 l -3,-4.75 -3,-5.1875 -2.4375,-9.5625 0.25,-6.3125 1.4375,-8.625 4.4375,-8.6875 5.5625,-6.375 6.1875,-4 4.3125,-1.6875 6.625,-1.8125 1.875,-0.6875 -13.125,-1.5 -18.8125,1.1875 z"
         style="fill:#6bbec7;fill-opacity:1;stroke:#000000;stroke-width:0.398px;stroke-linecap:butt;stroke-linejoin:miter;stroke-opacity:1" />
      <path
         transform="translate(0,164.33069)"
         id="path4721"
         d="M 99.25,49 C 80.075001,49 67.515776,53.02231 59.71875,59.8125 51.921724,66.60269 49.125,76.06126 49.125,86.1875 c 0,10.278968 4.680952,18.77328 11.5,24.875 -0.06584,0.68272 -0.165655,1.58975 -0.28125,2.53125 -0.112492,0.91623 -0.239627,1.84348 -0.375,2.53125 -0.06769,0.34388 -0.135514,0.61963 -0.1875,0.78125 -0.0073,0.0226 0.19947,0.21708 -0.03125,0.0312 -1.70233,1.28923 -2.766317,2.83944 -3.1875,4.34375 -0.442115,1.57907 -0.120874,2.64987 0.625,3.9375 1.491748,2.57526 3.971426,3.92903 7.125,3.90625 2.977212,-0.0215 5.228653,-1.36793 6.46875,-3.90625 1.232897,-2.52358 0.302849,-6.26153 -2.875,-8.75 -0.01069,-0.0228 -0.02332,-0.0276 -0.03125,-0.0937 4.834978,2.48357 11.736014,4.67507 17.6875,5.75 0.13429,2.24316 0.708434,3.94189 1.90625,5.3125 1.446525,1.6552 3.088779,2.31218 5.53125,2.34375 2.314566,0.0299 3.531647,-0.27611 4.59375,-1.0625 0.53511,-0.3962 1.254279,-1.25589 1.5625,-1.6875 1.20258,1.48651 3.1366,1.21952 4.53125,1.28125 3.84659,0.17028 5.82233,-2.09728 6.59375,-5.625 5.29249,-0.71162 10.33392,-1.9751 14.65625,-3.6875 1.61476,-0.47675 3.74983,-1.08029 5.25,-1.8125 -1.5344,1.22791 -2.62609,2.7378 -3,4.15625 -0.41634,1.57939 -0.0956,2.73371 0.6875,4 1.5661,2.53257 4.29347,3.83521 7.4375,3.8125 3.00358,-0.0217 5.22842,-1.42253 6.4375,-4.03125 1.19136,-2.57049 0.76939,-5.79042 -2.34375,-8.28125 0.001,0.002 4e-5,-0.0316 0,-0.0312 -0.0161,-0.0219 -0.0293,-0.0778 -0.0625,-0.15625 -0.077,-0.18096 -0.15693,-0.49029 -0.25,-0.84375 -0.18614,-0.70691 -0.38668,-1.64365 -0.53125,-2.5625 -0.14458,-0.91885 -0.36427,-1.70628 -0.4375,-2.375 0.59519,-0.61946 1.57626,-1.48803 2.125,-2.15625 5.40787,-6.02964 8.375,-13.73107 8.375,-22.53125 0,-10.86599 -4.33407,-20.33188 -12.71875,-26.90625 -0.78273,-0.613732 -1.61766,-1.186929 -2.46875,-1.75 -0.28646,-0.195137 -0.58242,-0.377103 -0.875,-0.5625 -0.53406,-0.338409 -1.07146,-0.663792 -1.625,-0.96875 -0.0528,-0.02908 -0.10329,-0.06498 -0.15625,-0.09375 -0.17191,-0.09546 -0.35698,-0.187639 -0.53125,-0.28125 -0.0205,-0.01065 -0.0419,-0.02064 -0.0625,-0.03125 C 122.25631,51.349906 111.89881,49 99.25,49 z m 0,3 c 4.2092,0 8.1111,0.301162 11.75,0.8125 -14.789472,2.827399 -26.03125,16.720302 -26.03125,33.4375 0,8.784528 3.097231,16.81032 8.1875,22.84375 -2.792517,0.031 -3.026857,4.15949 -3.25,8.6875 -0.970838,0.2333 -1.774242,0.71931 -2.3125,1.75 -6.404801,-0.96142 -12.259546,-2.73574 -17.28125,-5.28125 -0.01157,-0.009 -0.01969,-0.0226 -0.03125,-0.0312 -6.449197,-4.80857 -12.45232,-13.34212 -14.25,-23 C 53.854839,79.526082 57.664363,66.177915 74.125,55.34375 80.613971,53.220724 88.850585,52 99.25,52 z m 17.3125,1.84375 c 0.0416,0 0.0834,-1.8e-4 0.125,0 1.94703,0.449951 3.81262,0.991033 5.5625,1.59375 -0.72433,-0.06161 -1.44895,-0.09375 -2.1875,-0.09375 -15.53222,0 -28.15625,13.86306 -28.15625,30.96875 0,17.10569 12.62403,30.96875 28.15625,30.96875 0.28499,0 0.56078,-0.022 0.84375,-0.0312 -1.59089,0.51769 -3.27137,0.9815 -5,1.375 -16.365305,-0.37383 -29.5,-14.70964 -29.5,-32.375 0,-17.90037 13.487806,-32.40625 30.15625,-32.40625 z m 3.5,3.0625 c 3.6936,0 7.20842,0.825727 10.40625,2.3125 0.008,0.0045 0.0239,-0.0046 0.0312,0 1.26898,0.764166 2.45628,1.570121 3.5625,2.4375 7.69374,6.03261 11.5625,14.45014 11.5625,24.53125 0,10.40574 -4.29283,18.78997 -12.21875,24.75 -1.72859,1.29984 -3.6438,2.47789 -5.71875,3.53125 -2.42005,0.79141 -4.96937,1.25 -7.625,1.25 -14.7744,0 -26.71875,-13.16775 -26.71875,-29.40625 0,-16.2385 11.94435,-29.40625 26.71875,-29.40625 z M 68.5,57.625 C 55.660072,68.087562 52.522587,80.540741 54.5625,91.5 c 1.302049,6.995149 4.646741,13.37725 8.84375,18.3125 C 56.336142,104.13722 52.125,96.321734 52.125,86.1875 c 0,-9.58342 2.527988,-17.99886 9.5625,-24.125 1.904244,-1.658348 4.169184,-3.134727 6.8125,-4.4375 z m 63.0625,21 c -2.46802,0 -4.46875,2.476424 -4.46875,5.53125 0,3.054826 2.00073,5.53125 4.46875,5.53125 2.46802,0 4.46875,-2.476424 4.46875,-5.53125 0,-3.054826 -2.00073,-5.53125 -4.46875,-5.53125 z m -24.03125,0.0625 c -2.46802,0 -4.46875,2.476424 -4.46875,5.53125 0,3.054826 2.00073,5.53125 4.46875,5.53125 2.46802,0 4.46875,-2.476424 4.46875,-5.53125 0,-3.054826 -2.00073,-5.53125 -4.46875,-5.53125 z m 11.9375,12.90625 a 0.750075,0.750075 0 0 0 -0.59375,0.5 c -0.44576,1.23599 -1.61382,3.2971 -2.9375,4.0625 -0.66184,0.3827 -1.30095,0.47549 -2.125,0.15625 -0.82405,-0.31924 -1.84731,-1.14116 -3,-2.84375 a 0.75405803,0.75405803 0 1 0 -1.25,0.84375 c 1.25589,1.85504 2.48225,2.92723 3.71875,3.40625 1.2365,0.47902 2.44396,0.27518 3.40625,-0.28125 1.42232,-0.82243 2.3052,-2.20632 2.9375,-3.5 0.73338,1.31145 1.76633,2.64708 3.28125,3.375 1.02758,0.49375 2.26545,0.65385 3.4375,0.125 1.17205,-0.52885 2.20692,-1.66425 3.09375,-3.53125 A 0.750075,0.750075 0 1 0 128.09375,93.25 c -0.79255,1.66853 -1.64325,2.48232 -2.375,2.8125 -0.73175,0.33018 -1.4133,0.26319 -2.15625,-0.09375 -1.4859,-0.71398 -2.93058,-2.7288 -3.28125,-3.84375 a 0.750075,0.750075 0 0 0 -0.8125,-0.53125 z M 93.4375,110.25 c 2.521971,0.11679 2.246063,7.43559 2.3125,8.71875 2.252201,-0.12263 2.875,2.28125 2.875,2.28125 -0.0026,0.97726 0.264619,3.62531 -0.5,3.96875 -0.62466,0.8982 -1.121077,1.34564 -1.625,1.71875 -0.503923,0.37311 -1.358537,0.71357 -3.375,0.6875 -1.938631,-0.0251 -3.302356,-0.57641 -4.21875,-1.625 -0.682596,-0.78107 -1.611481,-1.96362 -1.1875,-3.46875 0.767686,-2.72537 1.544164,-3.56423 3.15625,-3.6875 0.302867,-2.47581 0.05621,-8.70982 2.5625,-8.59375 z m -30.21875,0.21875 c 0.325751,0.024 0.776773,0.24767 1.40625,0.75 1.653625,1.31962 1.67247,3.52743 1.5625,4.8125 0.01603,0.63631 0.05678,0.49263 0.125,1.0625 0.06822,0.56987 0.264041,1.28533 0.90625,1.78125 2.550508,1.96954 2.623695,3.77855 1.84375,5.375 -0.779945,1.59645 -2.750609,2.89204 -4.71875,2.90625 -2.225742,0.0161 -4.599776,-1.32947 -5.53125,-2.9375 -0.465737,-0.80402 -0.628578,-1.62557 -0.375,-2.53125 0.253578,-0.90568 0.972618,-1.9622 2.5,-3.0625 0.668276,-0.48141 0.583832,-0.77145 0.6875,-1.09375 0.103668,-0.3223 0.171512,-0.66374 0.25,-1.0625 0.156977,-0.79753 0.289823,-1.77048 0.40625,-2.71875 0.05864,-0.47764 0.04447,-0.49721 0.09375,-0.9375 0.04355,-0.76496 -0.133504,-2.41582 0.84375,-2.34375 z M 135.5,111.9375 c 0.42988,-0.0123 0.73926,0.214 0.78125,0.8125 0.0393,0.27951 0.048,0.49083 0.0937,0.78125 0.15196,0.96578 0.33822,1.96075 0.5625,2.8125 0.11214,0.42588 0.22259,0.79791 0.375,1.15625 0.15241,0.35834 0.28355,0.7023 0.75,1.0625 2.54106,1.96225 2.65471,3.88019 1.875,5.5625 -0.77971,1.68231 -2.71448,3.01723 -4.65625,3.03125 -2.23529,0.0161 -4.70537,-1.28678 -5.6875,-2.875 -0.49106,-0.79411 -0.66998,-1.58683 -0.4375,-2.46875 0.23248,-0.88192 0.91102,-1.9316 2.4375,-3.03125 0.76207,-0.54897 0.7567,-1.20658 0.78125,-1.6875 0.0246,-0.48092 -0.03,-0.93618 -0.0937,-1.375 -0.002,-0.0114 0.002,-0.0199 0,-0.0312 -0.45124,-1.44833 1.92912,-3.71309 3.21875,-3.75 z m -39.4375,0.1875 c 4.0769,3.74041 9.05932,6.37516 14.53125,7.5 -3.55096,0.50569 -6.61516,0.75 -10.625,0.75 -0.137024,0 -0.250002,0.032 -0.4375,0 -0.450659,-1.52751 -1.539782,-1.98107 -2.71875,-2.4375 -0.03257,-2.48392 -0.310876,-4.38643 -0.75,-5.8125 z m 3.75,9.1875 c 2.97116,0 5.77115,0.21823 9.03125,0.0312 -0.52534,2.56978 -2.47227,5.4825 -5.28125,5.34375 -1.55103,-0.0766 -2.92468,-0.40646 -3.625,-1.5 -0.462463,-0.72212 -0.206154,-3.19879 -0.125,-3.875 z"
         style="font-size:medium;font-style:normal;font-variant:normal;font-weight:normal;font-stretch:normal;text-indent:0;text-align:start;text-decoration:none;line-height:normal;letter-spacing:normal;word-spacing:normal;text-transform:none;direction:ltr;block-progression:tb;writing-mode:lr-tb;text-anchor:start;baseline-shift:baseline;color:#000000;fill:#000000;fill-opacity:1;stroke:none;stroke-width:3;marker:none;visibility:visible;display:inline;overflow:visible;enable-background:accumulate;font-family:Sans;-inkscape-font-specification:Sans"
         inkscape:connector-curvature="0" />
    </g>
  </g>
  <g
     inkscape:groupmode="layer"
     id="layer7"
     inkscape:label="anim"
     style="display:inline"
     transform="translate(0,-104.33069)">
    <g
       id="anim00"
       inkscape:label="#g5950">
      <path
         inkscape:connector-curvature="0"
         id="path5671"
         d="M 5.9112376,209.61626 C 5.6907737,207.41167 32.145958,172.35854 32.145958,172.35854 l 26.896105,-17.63679 47.178387,-19.62092 50.26486,-7.27516 41.00553,8.59792 20.72324,15.21174 17.63676,29.32116 5.5115,24.91195 1.98416,-5.07057 c 0,0 3.96827,-12.34576 3.96827,-13.44805 0,-1.10229 3.52735,-17.41633 3.52735,-17.41633 l 1.32276,-5.29103 c 0,0 -3.74781,-3.08645 -4.62964,-4.18874 -0.88186,-1.1023 -5.73197,-6.6138 -6.6138,-7.49563 -0.88185,-0.88186 -5.0706,-7.49565 -5.0706,-7.49565 l -0.22048,-8.81838 3.52737,-11.90483 7.71609,-4.62967 9.03885,-0.88183 7.49565,0.66139 11.68436,5.51147 c 0,0 11.90483,9.25932 12.78666,9.92071 0.88186,0.66136 8.15702,12.12529 8.15702,12.12529 l -0.4409,7.93655 -4.62967,9.92071 -7.93655,5.07057 0.22048,8.59792 -3.74781,11.90483 -10.58207,17.63679 -7.27519,8.81841 -14.55034,12.34573 -6.17287,4.18874 -5.0706,14.32989 -25.35288,31.52577 -15.8731,8.59792 -1.32276,11.24346 c 0,0 -3.08642,7.93656 -4.18874,8.81839 -1.1023,0.88185 -13.88896,13.22759 -13.88896,13.22759 l -11.68436,5.07059 -10.5821,1.32276 -4.62964,-1.54322 2.64551,8.37745 -3.52734,8.81841 -8.15702,5.29104 -7.71611,1.54322 -9.70022,-1.54322 -8.81841,-8.37748 -1.32276,-9.92068 1.32276,-5.29104 4.18874,-5.95242 6.17289,-4.85011 -16.97542,1.10229 -19.179994,-0.22049 -25.132418,-3.74781 -16.09358,-6.39333 -1.54322,10.36161 1.322759,6.61379 5.511497,5.5115 0.881841,6.39333 -2.425059,10.80254 -7.275176,5.5115 c 0,0 -10.141153,1.32275 -11.022991,1.32275 -0.881841,0 -9.920694,-3.3069 -9.920694,-3.3069 0,0 -5.731956,-5.07058 -6.393335,-6.6138 -0.66138,-1.54322 -1.322759,-12.12529 -1.322759,-12.12529 l 2.645517,-7.0547 5.731956,-3.52737 4.409197,-4.62965 2.645518,-11.90483 3.747817,-5.73196 L 23.768485,286.11581 13.40687,270.68363 5.6907761,252.82637 3.2657174,237.39417 z"
         style="fill:#fff0e8;fill-opacity:1;stroke:none" />
      <path
         sodipodi:nodetypes="sssss"
         inkscape:connector-curvature="0"
         id="path5668"
         d="m 225.04828,209.2856 c 0,31.47408 -18.1445,56.98887 -45.96587,56.98887 -27.8214,0 -54.59209,-25.51537 -54.78427,-56.98887 -0.22041,-36.10373 18.80588,-56.54794 46.62728,-56.54794 27.82137,0 54.12286,25.07386 54.12286,56.54794 z"
         style="fill:#ff401b;fill-opacity:1;stroke:none" />
      <path
         inkscape:connector-curvature="0"
         id="path5673"
         d="m 38.098373,168.1698 -15.211729,24.91198 -6.613795,20.50275 -2.425058,14.32991 2.865979,24.69149 10.361612,22.26644 14.550349,17.41633 16.75494,11.90483 11.243463,5.95242 17.416329,5.07057 24.691487,1.54323 15.87311,-5.29104 11.023,-1.76368 1.54322,-1.32276 -11.24346,-14.32989 -13.88896,-18.95955 -11.90483,-17.63679 -3.527371,-8.81839 0.440931,-3.08644 -4.409207,-9.47978 -5.952403,-21.3846 c 0,0 0.881831,-20.94368 0.881831,-21.82551 0,-0.88183 2.645518,-11.90483 2.645518,-11.90483 l 6.172891,-14.99128 c 0,0 9.25931,-13.00712 9.92068,-13.88898 0.66139,-0.88183 12.56622,-10.58207 12.56622,-10.58207 0,0 11.02297,-5.9524 11.4639,-6.83425 0.44093,-0.88184 3.08645,-4.18872 3.08645,-4.18872 l -13.66852,0.4409 -45.635191,13.66852 z"
         style="fill:#6bbec7;fill-opacity:1;stroke:none" />
      <path
         transform="translate(0,104.33069)"
         inkscape:connector-curvature="0"
         id="path5948"
         d="m 160.69002,127.31697 0.35355,4.06587 c 0,0 2.12132,6.89429 2.2981,7.77817 0.17677,0.88389 4.41941,6.89429 4.41941,6.89429 l 6.01041,4.41942 4.24264,1.23744 3.53554,-0.53033 2.47487,-2.2981 c 0,0 3.53553,-1.94454 3.71231,-2.65165 0.17678,-0.70711 1.76777,-6.18718 1.76777,-6.18718 l 2.47487,-6.54074 0.17678,-7.07107 -3.53554,0.35355 -3.88908,-0.17677 -3.00521,-2.82843 -3.53553,-3.71231 -1.59099,-3.0052 -1.59099,3.53553 -2.2981,3.0052 -4.41942,1.94455 -2.82842,2.47487 z"
         style="fill:#df0800;fill-opacity:1;stroke:none" />
      <path
         id="path5576"
         d="m 254.87794,116.75633 c -9.01111,-0.27207 -14.85783,3.49081 -18.08308,8.18415 -3.22525,4.69335 -4.03712,10.04769 -4.28694,13.40643 -0.58549,7.87153 4.3236,14.7625 9.04154,19.79786 4.05879,4.33186 7.10466,6.40937 8.18415,7.17088 -1.6923,6.39889 -3.28885,14.80622 -4.98843,22.44796 -0.57083,2.56665 -1.20005,4.91441 -1.79272,7.09293 -4.01604,-21.76726 -12.90389,-37.68951 -25.25396,-48.63725 -17.10094,-15.15912 -40.26804,-20.65525 -64.84968,-20.65525 -32.31068,0 -70.0931,10.20036 -100.158459,28.21585 C 22.62502,171.79538 -2.625e-6,198.1438 -2.625e-6,230.39916 c 0,27.03523 10.734694625,50.99554 29.618843625,67.34389 -1.354398,2.43005 -2.137967,4.79195 -2.728052,7.01499 -0.820986,3.09293 -1.395697,5.87947 -2.805995,8.72977 -1.228345,2.48254 -3.533607,3.55842 -6.391435,5.84582 -2.857828,2.2874 -5.693041,6.08684 -6.001713,12.70493 -0.433138,9.28669 4.04892,15.23381 9.19743,18.39486 5.148511,3.16104 10.736937,3.8909 13.718202,3.89721 11.402718,0.0254 20.270562,-8.79384 20.73319,-17.84925 0.178087,-3.48385 -0.01497,-5.90523 -0.54561,-7.79443 -0.529747,-1.8892 -1.552407,-3.31978 -2.572163,-4.13105 -1.019756,-0.81127 -1.785481,-1.14357 -2.182441,-1.48094 -0.39696,-0.33737 -0.670521,-0.63376 -1.013276,-1.87066 -0.740783,-2.67326 -0.839776,-6.89764 -0.623555,-10.3666 0.01746,-0.27888 0.05747,-0.43369 0.07795,-0.7015 12.99181,6.31589 28.218888,9.89893 45.285652,9.89893 7.001165,0 14.030375,-0.40162 21.044965,-1.16916 -2.52813,2.52262 -5.00126,6.40093 -4.98843,12.93875 0.0175,8.70123 4.14282,14.26808 9.04153,17.14775 4.89872,2.87968 10.3752,3.4329 13.87409,3.5075 5.89147,0.12571 10.9494,-2.32249 14.57559,-5.4561 3.6262,-3.13361 6.05182,-6.7942 6.1576,-10.52249 0.0823,-2.89798 -0.24268,-5.31351 -1.01327,-7.5606 2.11028,0.61603 4.45774,0.93534 7.09293,0.93534 8.60618,0 17.53735,-5.3638 24.55246,-12.4711 7.01512,-7.1073 12.23726,-16.1131 12.23726,-24.6304 0,-0.21276 0.002,-0.41212 0,-0.62356 23.83395,-14.38273 41.86745,-33.62226 47.31221,-55.65225 20.68971,-15.20902 31.18962,-31.35432 36.47794,-43.80471 4.79756,-11.29501 5.16877,-18.71394 5.22227,-20.49935 2.30862,-1.04094 11.42622,-5.57219 12.47109,-19.01842 0.63491,-8.17054 -5.22586,-16.79232 -13.40642,-23.77302 -8.18056,-6.98069 -18.94439,-12.30702 -29.5409,-12.62698 z m -0.15589,4.98844 c 8.98363,0.27124 19.03296,5.08509 26.50107,11.45781 7.46812,6.37273 12.10237,14.27871 11.69165,19.56403 -0.97706,12.57365 -10.67837,15.66681 -10.67837,15.66681 l -1.71478,0.62355 0,1.79272 c 0,0 0.096,7.9056 -4.98843,19.87581 -4.59423,10.81632 -15.84056,26.32245 -32.97045,39.98543 0.25072,-2.16505 0.7015,-4.41536 0.7015,-6.62526 0,-6.0514 0.40371,-11.27205 -0.15589,-16.68009 0.91064,-1.46615 2.8993,-5.19241 3.58544,-7.32677 1.0247,-3.18758 1.96053,-7.07208 2.88394,-11.22398 1.84684,-8.3038 3.59529,-17.69922 5.30021,-23.77302 l 0.46767,-1.71477 -1.48095,-1.01328 c 0,0 -4.35844,-2.9784 -8.65182,-7.5606 -4.29337,-4.5822 -8.20101,-10.59023 -7.79443,-16.05653 0.2165,-2.91093 1.01737,-7.47999 3.42955,-10.99015 2.41219,-3.51016 6.21854,-6.23288 13.87409,-6.00171 z m -101.87323,11.37987 c 3.66707,0 7.29377,0.20228 10.83426,0.46766 -17.5596,3.74954 -30.43191,10.58347 -39.51777,19.3302 -11.92314,11.47809 -17.21931,26.16121 -18.31692,40.99871 -1.09761,14.83751 1.95622,29.85338 6.78116,42.40172 2.30181,5.98639 5.0049,11.39229 7.87237,15.97858 -2.80719,-1.89266 -5.54896,-3.64385 -8.02826,-5.06638 -2.64529,-1.51778 -5.06032,-2.71029 -7.09294,-3.42955 -1.01629,-0.35962 -1.95379,-0.6152 -2.88394,-0.7015 -0.49243,-0.0456 -1.00063,-0.0327 -1.48094,0.0778 -7.839575,-13.63115 -12.081542,-36.44153 -6.703209,-58.14647 5.194035,-20.96126 19.114639,-40.92451 47.468089,-51.44325 3.76478,-0.2676 7.45056,-0.46767 11.0681,-0.46767 z m -23.07152,1.71477 c -22.41806,11.70333 -34.393228,30.23075 -39.128053,49.33876 -5.732162,23.13283 -1.195229,47.04044 7.5606,61.65396 -0.09528,0.27808 -0.192803,0.57859 -0.233708,0.85739 -0.164868,1.11524 0.0075,2.20519 0.311777,3.42955 0.609861,2.44872 1.890194,5.32324 3.663384,8.57388 3.54638,6.50125 9.00188,14.48138 14.73148,22.29207 9.02587,12.30423 17.02017,22.03233 20.73319,26.50107 -14.32779,3.29265 -29.12502,5.06639 -43.648825,5.06639 -3.324693,0 -6.582417,-0.12072 -9.743041,-0.38973 -26.814419,-7.22048 -48.719251,-23.34167 -59.705353,-45.44154 -11.978117,-24.09542 -13.431972,-55.88224 10.756317,-90.88308 4.85901,-7.03108 13.570272,-10.95436 21.43469,-15.66681 21.807525,-13.06731 48.330792,-21.8494 73.267662,-25.33191 z m 46.92248,0.46767 c 13.83738,2.62429 26.21992,7.77645 36.08822,16.5242 15.25392,13.52178 25.02013,35.58883 25.02013,70.77344 0,23.20901 -16.71667,44.92784 -42.40171,61.26424 -0.95095,-4.2391 -2.61606,-8.03258 -4.91049,-11.14603 -3.80326,-5.16092 -9.48452,-8.41799 -16.13448,-8.41799 -8.0251,0 -15.97898,4.89238 -22.37002,11.45781 -2.56151,-2.05403 -10.09956,-8.03779 -19.8758,-15.19914 -5.28772,-4.44886 -11.47203,-13.84548 -15.97859,-25.56574 -4.65503,-12.10641 -7.5932,-26.6266 -6.54732,-40.76488 1.04587,-14.13828 6.04808,-27.82206 17.22569,-38.58244 10.43172,-10.04235 26.35466,-17.59145 49.88437,-20.34347 z m -151.679654,50.8197 c -19.0474059,30.99805 -15.2120213,59.86169 -4.053105,82.30921 4.348218,8.74697 10.252751,16.56063 17.459529,23.30535 -1.128253,0.3863 -2.260797,0.90675 -3.195718,1.48094 C 17.366439,278.30825 7.4826526,255.96736 7.4826526,230.39916 c 0,-16.35322 6.5690804,-31.28955 17.5374734,-44.27238 z m 177.479224,1.71478 c -6.39223,0 -9.58715,6.24492 -9.58715,14.34175 0,8.09681 5.76708,15.1212 12.15932,15.1212 6.39223,0 11.53576,-6.5567 11.53576,-14.65353 0,-8.09681 -7.71569,-14.80942 -14.10793,-14.80942 z m -59.47152,0.70149 c -6.39223,0 -9.58715,6.24493 -9.58715,14.34176 0,8.09683 5.76708,15.1212 12.15932,15.1212 6.39223,0 11.53576,-6.5567 11.53576,-14.65353 0,-8.09684 -7.71569,-14.80943 -14.10793,-14.80943 z m 32.89251,30.55418 a 1.8708509,1.8708509 0 0 0 -1.403,1.48094 c -1.22189,5.27864 -5.12103,8.6922 -9.19743,9.43126 -4.0764,0.73907 -8.38638,-0.98284 -11.30193,-7.01498 a 1.9000678,1.9000678 0 1 0 -3.42955,1.63683 c 2.02199,4.18342 5.01321,6.84007 8.2621,8.18415 0.10027,3.13725 1.01722,8.40619 3.5075,13.56231 2.72411,5.6403 7.59584,11.07967 15.1212,11.37987 3.50507,0.13993 6.48671,-1.15981 8.72976,-3.19571 2.24305,-2.03591 3.81201,-4.7561 4.98844,-7.63855 2.14243,-5.24928 2.92659,-11.0215 3.3516,-14.80942 2.62155,-1.38633 5.08758,-3.75377 7.09294,-7.24882 a 1.8852244,1.8852244 0 1 0 -3.27367,-1.87066 c -3.57977,6.23906 -7.62273,7.53608 -11.37987,6.62526 -3.75714,-0.91081 -7.40593,-4.46238 -8.88565,-9.19743 a 1.8708509,1.8708509 0 0 0 -2.02655,-1.32505 1.8708509,1.8708509 0 0 0 -0.15589,0 z m 0.77944,6.1576 c 2.25081,3.86444 5.32444,7.05156 9.35332,8.02827 1.46269,0.35457 2.99785,0.39039 4.52077,0.15589 -0.47836,3.56618 -1.27168,8.13107 -2.88394,12.08137 -1.04148,2.55176 -2.32882,4.81917 -3.97516,6.31349 -1.64633,1.49431 -3.52021,2.28455 -6.07966,2.18244 -5.80933,-0.23172 -9.44515,-4.30123 -11.84753,-9.27538 -1.9124,-3.95964 -2.82363,-8.35902 -3.11778,-10.99015 1.13485,0.10276 2.24076,0.12347 3.35161,-0.0778 4.45804,-0.80825 8.42465,-3.91375 10.67837,-8.41798 z m -74.98244,21.66852 c 0.0125,-0.0224 0.0656,0.01 0.0778,0 0.23271,0.0399 1.09631,0.0282 2.33833,0.46767 1.65604,0.58599 3.93328,1.66265 6.46938,3.11777 5.07217,2.91026 11.34041,7.25788 17.45953,11.69165 0.83863,0.62795 1.50888,1.10147 2.33833,1.71478 9.32596,6.85289 16.32917,12.49092 19.01841,14.65353 -6.04249,7.11937 -10.28865,15.73557 -10.28865,23.69507 0,0.53596 0.0711,1.03236 0.0778,1.55889 -4.25915,-5.1991 -11.33173,-13.90394 -19.48608,-25.02013 -5.68046,-7.74372 -11.11015,-15.69235 -14.49764,-21.90235 -1.69375,-3.10501 -2.88621,-5.76995 -3.35161,-7.63855 -0.23271,-0.93428 -0.289,-1.65868 -0.23371,-2.02655 0.0272,-0.18407 0.0521,-0.26444 0.0778,-0.31178 z m 72.56617,21.20086 c 5.0801,0 10.62068,3.54107 13.64025,7.63854 2.08924,2.83501 2.22874,6.48455 2.96189,10.83426 0,0 0.78007,5.0274 0.23371,8.49594 -0.87949,5.97597 -4.90256,13.0908 -10.52249,18.78458 -6.36641,6.45007 -14.6142,10.99015 -21.04496,10.99015 -6.95491,0 -10.28319,-2.07532 -12.4711,-5.76788 -0.92493,-1.56103 -1.55866,-3.56566 -2.02655,-5.84583 -1.90304,-4.5052 -2.48751,-7.38538 -2.26038,-11.45781 0,-6.45364 5.05653,-16.37255 10.75631,-22.37002 5.42233,-5.70553 14.35119,-11.30193 20.73319,-11.30193 z M 39.51777,295.32678 c 2.744486,-0.53087 4.373023,3.37784 4.208994,12.3152 -0.09605,0.93137 -0.240194,1.73558 -0.311778,2.88394 -0.231962,3.7214 -0.272493,8.28525 0.779444,12.08137 0.553604,1.9978 1.603403,3.39738 2.650107,4.28694 1.046703,0.88956 1.860198,1.31847 2.260385,1.63683 0.400187,0.31836 0.639884,0.42731 0.935332,1.48094 0.295448,1.05364 0.474375,2.97496 0.311777,6.15761 -0.293654,5.74782 -7.037277,13.19202 -15.744753,13.17259 -2.102043,-0.005 -7.156594,-0.66835 -11.146039,-3.11778 -3.989445,-2.44942 -7.140314,-6.32947 -6.781156,-14.02997 0.255001,-5.46736 1.864481,-7.14946 4.131049,-8.9636 2.266569,-1.81415 5.765411,-3.45986 7.794433,-7.5606 1.741508,-3.51967 2.349409,-6.77043 3.117773,-9.6651 0.472839,-1.78132 1.000361,-3.42122 1.792719,-5.06638 2.309803,-3.36275 4.355023,-5.29345 6.001713,-5.61199 z m 7.014989,3.11777 c 4.682634,3.47727 9.736656,6.58147 15.121199,9.27538 -5.281133,-1.73905 -10.231745,-3.89687 -14.809421,-6.46938 -0.08899,-1.04293 -0.157261,-1.95537 -0.311778,-2.806 z m 88.856531,12.78287 c 3.66261,-0.25625 6.36263,2.21367 6.23555,4.36488 -0.10277,1.73815 -1.2754,6.40593 2.72805,9.97688 4.02123,3.58681 4.29013,5.15136 4.13105,10.75631 -0.0349,1.23035 -1.59498,4.39811 -4.44283,6.8591 -2.84785,2.461 -6.77649,4.3818 -11.22398,4.28694 -3.05829,-0.0653 -7.77982,-0.64393 -11.45782,-2.80599 -3.678,-2.16207 -6.53315,-5.60319 -6.54732,-12.86082 -0.0125,-6.13789 1.92865,-7.99666 4.36488,-10.13276 1.21813,-1.06805 5.70298,-1.72393 6.8591,-3.3516 3.07876,-5.04773 6.50462,-6.89363 9.35332,-7.09294 z"
         style="font-size:medium;font-style:normal;font-variant:normal;font-weight:normal;font-stretch:normal;text-indent:0;text-align:start;text-decoration:none;line-height:normal;letter-spacing:normal;word-spacing:normal;text-transform:none;direction:ltr;block-progression:tb;writing-mode:lr-tb;text-anchor:start;baseline-shift:baseline;color:#000000;fill:#000000;fill-opacity:1;stroke:none;stroke-width:3.12600422;marker:none;visibility:visible;display:inline;overflow:visible;enable-background:accumulate;font-family:Sans;-inkscape-font-specification:Sans"
         inkscape:connector-curvature="0" />
    </g>
    <g
       id="anim01"
       inkscape:label="#g5896"
       transform="matrix(2.4984756,0,0,2.4984756,-1695.4499,-953.04217)">
      <path
         transform="translate(0,104.33069)"
         inkscape:connector-curvature="0"
         id="path5890"
         d="m 694.875,343.25 -3.875,4 -3.875,3.625 c 0,0 -3.5,4.125 -3.625,4.75 -0.125,0.625 -1.875,5.625 -1.875,5.625 l -1.5,4.25 -0.5,6.5 2,9.5 c 0,0 5.625,9.25 6.125,9.875 0.5,0.625 4.125,4.75 4.125,4.75 l -1.75,2.625 -1,4.5 -3.125,2.625 -1.5,2.5 -0.125,3.875 1.75,3.75 5.375,2 3.75,-0.375 3,-2.5 1.5,-2.25 0,-3 -0.875,-2 -1.75,-1.75 -0.125,-7 3.125,1.5 5.125,2 9.25,1.75 13.625,-1.75 1,0.25 -1.5,1.5 -2.125,1.125 -1.125,1.25 -0.75,3.375 0.5,2.75 2.25,3.125 3.25,1 2.5,0.5 3.25,-1.25 2.75,-2.75 1,-2.625 -0.375,-2.375 -1.875,-1.75 -0.875,-2 -0.125,-3 -0.125,-1.25 13.125,-4.375 -0.125,3.25 2.875,5.5 3.375,3.25 5,2 2.75,0.375 2.5,-0.875 2.5,-1.125 2.125,-2.875 1.75,-4.75 c 0,0 0.375,-5.375 0.375,-6 0,-0.625 -0.125,-5.625 -0.125,-5.625 l -0.125,-5.5 -0.875,-3.375 2.375,-4 2.125,-9.75 L 774.5,353 c 0,0 -5.875,-11.75 -6.25,-12.625 -0.375,-0.875 -5.125,-4.875 -5.875,-5.625 C 761.625,334 754,330.5 754,330.5 l -9.5,-2.375 -11.75,1.125 -10.875,1.5 -6,2 -0.75,-0.25 -0.75,-3.375 -3.75,-2.375 -4,-1.125 -2.375,0.5 -3.375,1.125 -3,1.75 -2.375,3.25 c 0,0 -1.625,3 -1.875,3.75 -0.25,0.75 -0.25,3.75 -0.25,3.75 z"
         style="fill:#fff0e8;fill-opacity:1;stroke:none" />
      <path
         sodipodi:nodetypes="sssss"
         inkscape:connector-curvature="0"
         id="path5668-8"
         d="m 768.69373,465.21667 c 0,12.59902 -7.26322,22.81256 -18.40007,22.81256 -11.13687,0 -21.85314,-10.21377 -21.93007,-22.81256 -0.0882,-14.45227 7.52797,-22.63606 18.66484,-22.63606 11.13685,0 21.6653,10.03703 21.6653,22.63606 z"
         style="fill:#ff401b;fill-opacity:1;stroke:none" />
      <path
         transform="translate(0,104.33069)"
         inkscape:connector-curvature="0"
         id="path5892"
         d="m 695,343.5 -3.25,3.875 -1.625,2.875 -2,4 -1.625,4.375 -1.375,3.75 -1.125,4.75 0.5,7.5 1.375,5.375 3.125,6.5 3.75,4.875 4,3.875 5.375,3.375 6.5,3.5 c 0,0 2.125,1.5 3.125,1.375 1,-0.125 5.875,-0.375 5.875,-0.375 l 11.625,-0.5 4.625,-1.625 3.125,-0.875 8.75,-3.25 2.875,-0.75 0.375,-2 -2.75,0.125 -5.125,-0.25 -7.5,-2.375 -4,-2 -4.375,-3.625 -3.375,-4.125 -3.5,-6.75 -1.125,-3.375 -1.75,0.125 -1.75,-1 -4.875,-3.375 -4.75,-4.75 -2.75,-4.625 -2,-4.25 c 0,0 -1.25,-2.75 -1.375,-3.375 -0.125,-0.625 -0.75,-2 -0.875,-2.875 C 697,346.75 697.5,345.5 697.5,345.5 z"
         style="fill:#6bbec7;fill-opacity:1;stroke:none" />
      <path
         transform="translate(0,104.33069)"
         inkscape:connector-curvature="0"
         id="path5894"
         d="M 715.375,364.375 713,362 l -2.375,-8 -1.5,-7.25 -0.125,-2.375 1.75,-1.375 1.25,-1.625 1.375,-1.875 1.25,-3.5 0.5,-3 5.625,-1.125 13.125,-3 -1.125,2.125 -4.625,2.5 -3.5,2.5 -2.375,2.75 -3.125,3.625 -2.25,4.25 -1.75,5.125 -0.125,7 z"
         style="fill:#6bbec7;fill-opacity:1;stroke:none" />
      <path
         id="path5576-7"
         transform="translate(0,104.33069)"
         d="m 706.21875,324.875 c -3.99561,-0.0244 -7.63083,2.13841 -10.1875,5 -2.55667,2.86159 -4.12803,6.45874 -3.71875,9.65625 0.17139,1.33897 0.58652,2.45329 1.125,3.40625 -8.78594,6.8678 -14.84375,15.85055 -14.84375,26.40625 0,10.82216 4.3157,20.39328 11.875,26.9375 -0.54216,0.97274 -0.85754,1.92262 -1.09375,2.8125 -0.32864,1.23809 -0.56046,2.35903 -1.125,3.5 -0.49171,0.99376 -1.41852,1.4281 -2.5625,2.34375 -1.14399,0.91564 -2.28269,2.44454 -2.40625,5.09375 -0.17338,3.71745 1.62656,6.07839 3.6875,7.34375 2.06094,1.26537 4.30661,1.55998 5.5,1.5625 4.5645,0.0102 8.09606,-3.50014 8.28125,-7.125 0.0713,-1.39458 -0.006,-2.36876 -0.21875,-3.125 -0.21205,-0.75625 -0.62304,-1.3315 -1.03125,-1.65625 -0.40821,-0.32475 -0.7161,-0.4587 -0.875,-0.59375 -0.1589,-0.13504 -0.26905,-0.25487 -0.40625,-0.75 -0.29654,-1.0701 -0.33655,-2.76763 -0.25,-4.15625 0.007,-0.11164 0.0231,-0.17405 0.0312,-0.28125 5.2006,2.52824 11.32445,3.96875 18.15625,3.96875 2.80256,0 5.59832,-0.1615 8.40625,-0.46875 -1.01201,1.0098 -2.00513,2.57042 -2,5.1875 0.007,3.48309 1.66405,5.69102 3.625,6.84375 1.96095,1.15272 4.1619,1.37639 5.5625,1.40625 2.35835,0.0503 4.36094,-0.93312 5.8125,-2.1875 1.45156,-1.25438 2.4264,-2.69508 2.46875,-4.1875 0.033,-1.16006 -0.0719,-2.14107 -0.40625,-3.03125 -0.93325,-2.48441 -1.99569,-2.7454 -2.46875,-3.53125 -0.37459,-0.62229 -0.19928,-1.85806 -0.46875,-2.75 -0.10503,-0.34767 0.20851,-0.77274 0.0937,-1.0625 l 10.9375,-3.8125 c 0.064,0.60999 0.0355,1.06381 0.25,1.9375 0.36693,1.49432 0.99282,3.28366 2.03125,5.03125 2.07685,3.49518 5.94798,6.77514 12.28125,6.6875 3.89079,-0.0538 6.75825,-1.98751 8.40625,-5.25 1.648,-3.26249 2.25152,-7.75894 2.21875,-13.28125 -0.0298,-5.02889 -0.26957,-9.83997 -0.28125,-12.6875 1.69579,-2.61406 2.93215,-5.37103 3.53125,-8.28125 0.95437,-4.63601 0.84916,-10.98797 -0.28125,-16.65625 -1.73289,-8.68935 -5.18128,-15.08638 -10.125,-19.46875 -6.84548,-6.06817 -16.12875,-8.28125 -25.96875,-8.28125 -7.55032,0 -15.85035,1.38107 -23.84375,3.96875 -0.34675,-1.58263 -1.1022,-2.97162 -2.28125,-4.03125 -1.75407,-1.57641 -4.32282,-2.41848 -7.4375,-2.4375 z m 0,2 c 2.76569,0.0169 4.79763,0.77266 6.09375,1.9375 1.29612,1.16484 1.94559,2.7491 1.84375,4.875 -0.33008,6.89024 -5.5,10.09375 -5.5,10.09375 l -0.46875,0.28125 0,0.5625 c -0.0236,3.73135 1.22707,8.58575 2.65625,12.75 0.71459,2.08212 1.47477,3.9715 2.15625,5.4375 0.34074,0.733 0.67273,1.37427 0.96875,1.875 0.25672,0.43425 0.43259,0.76846 0.75,1.0625 0.3128,1.76623 0.7364,3.55439 1.28125,5.34375 -0.75877,-0.32523 -1.74034,-0.83077 -2.84375,-1.5625 -1.91515,-1.27004 -4.19816,-3.10742 -6.375,-5.40625 -4.14355,-4.37575 -7.9238,-10.39414 -8.5,-17.28125 0.85169,0.25077 1.61459,0.33308 2.1875,0.375 -0.97909,-1.99782 -1.78107,-2.06468 -3.40625,-3.15625 -1.29394,-0.89469 -2.43052,-2.28531 -2.75,-4.78125 -0.29783,-2.32676 0.95826,-5.53241 3.21875,-8.0625 2.26049,-2.53009 5.43526,-4.36358 8.6875,-4.34375 z m 33.5625,3.53125 c 1.46792,0 2.92649,0.0813 4.34375,0.1875 -7.02908,1.50093 -12.17544,4.21745 -15.8125,7.71875 -4.77281,4.59467 -6.90438,10.49807 -7.34375,16.4375 -0.43937,5.93943 0.78734,11.94567 2.71875,16.96875 0.13439,0.34951 4.91282,17.89925 25.9375,19.28125 -0.0877,0.14379 -0.16958,0.29479 -0.25,0.4375 -0.41706,0.74015 -0.72247,1.45229 -0.96875,2.09375 -32.4793,0.2917 -34.03833,-33.93522 -32.03125,-42.34375 2.00703,-8.40832 7.65015,-16.38312 19,-20.59375 1.50703,-0.10713 2.95815,-0.1875 4.40625,-0.1875 z m -9.21875,0.6875 c -8.97391,4.68482 -13.57215,12.15036 -15.65625,19.75 -0.69681,2.54091 -0.80201,6.98888 -0.625,10.5625 -0.43557,-1.06563 -1.52943,-3.09493 -1.96875,-4.375 -1.3353,-3.8907 -2.71363,-8.98044 -2.78125,-12.21875 1.22174,-0.89284 5.62241,-4.04901 6.21875,-10.3125 4.78768,-1.58936 10.04361,-2.74026 14.8125,-3.40625 z m 18.78125,0.1875 c 5.53909,1.0505 10.48723,3.09204 14.4375,6.59375 6.10612,5.41275 10.03125,14.2594 10.03125,28.34375 0,7.26712 -4.10835,14.17726 -10.8125,19.96875 -0.0113,0.28842 -2.20204,-0.52962 -2.96875,-0.625 -0.8676,-0.10312 -1.76028,-0.10616 -2.625,0.0312 -3.20424,0.50973 -5.42274,2.22473 -6.90625,4.125 -20.59846,-1.36769 -25.20705,-18.01319 -25.40625,-18.53125 -1.8634,-4.84618 -3.04366,-10.65297 -2.625,-16.3125 0.41867,-5.65953 2.43186,-11.16139 6.90625,-15.46875 4.1758,-4.01994 10.54985,-7.02337 19.96875,-8.125 z M 695.0625,345 c 0.28675,0.26255 0.57459,0.51103 0.875,0.71875 0.27025,0.18687 0.53994,0.35712 0.8125,0.5 0.39243,7.67196 4.52264,14.24224 8.96875,18.9375 2.25915,2.38575 4.577,4.28758 6.59375,5.625 1.74983,1.16041 3.1725,1.92444 4.3125,2.15625 4.18265,11.84935 13.79786,22.81489 31.34375,21.84375 -0.073,0.2487 -0.13927,0.49448 -0.1875,0.6875 l -12.625,4.375 c -1.2196,0.42116 -1.50646,0.3694 -2.3125,0.5 -5.55064,0.89938 -11.136,1.875 -16.6875,1.875 -1.33087,0 -2.64106,-0.0485 -3.90625,-0.15625 -10.73378,-2.89035 -19.50853,-9.34095 -23.90625,-18.1875 -4.79482,-9.64536 -5.37004,-22.36422 4.3125,-36.375 0.65468,-0.94733 1.47843,-1.77192 2.40625,-2.5 z m -6.4375,6.625 c -7.62465,12.40847 -6.0919,23.9518 -1.625,32.9375 1.74059,3.5014 4.11514,6.64385 7,9.34375 -0.45163,0.15464 -0.907,0.3639 -1.28125,0.59375 -7.15109,-5.97006 -11.125,-14.92134 -11.125,-25.15625 0,-6.54617 2.64062,-12.52174 7.03125,-17.71875 z m 71.03125,0.6875 c -2.55881,0 -3.8125,2.4776 -3.8125,5.71875 0,3.24113 2.28495,6.0625 4.84375,6.0625 2.5588,0 4.625,-2.63385 4.625,-5.875 0,-3.24114 -3.09745,-5.90625 -5.65625,-5.90625 z m -23.78125,0.28125 c -2.5588,0 -3.84375,2.4776 -3.84375,5.71875 0,3.24115 2.31619,6.0625 4.875,6.0625 2.5588,0 4.59375,-2.63385 4.59375,-5.875 0,-3.24115 -3.0662,-5.90625 -5.625,-5.90625 z m 13.25,13.53125 c -0.27993,0.0673 -0.51047,0.3106 -0.5625,0.59375 -0.48913,2.11303 -2.02447,3.48541 -3.65625,3.78125 -1.63178,0.29585 -3.36416,-0.39784 -4.53125,-2.8125 -0.17096,-0.36032 -0.67132,-0.54679 -1.03125,-0.375 -0.35993,0.17179 -0.51636,0.67171 -0.34375,1.03125 0.8094,1.67462 2.01197,2.71196 3.3125,3.25 l 1.53125,0.375 c 0.45428,0.0411 0.89908,0.0494 1.34375,-0.0312 1.78455,-0.32354 3.34784,-1.54072 4.25,-3.34375 0.901,1.54693 2.13725,2.79653 3.75,3.1875 0.58551,0.14194 1.20288,0.15638 1.8125,0.0625 l 1.59375,-0.53125 c 1.04941,-0.55495 2.04101,-1.47594 2.84375,-2.875 0.19604,-0.34307 0.0619,-0.83521 -0.28125,-1.03125 -0.34307,-0.19605 -0.83521,-0.0618 -1.03125,0.28125 -1.43298,2.49749 -3.05853,3.02084 -4.5625,2.65625 -1.50398,-0.3646 -2.97017,-1.79207 -3.5625,-3.6875 -0.0998,-0.33691 -0.46385,-0.57496 -0.8125,-0.53125 -0.0208,-8.7e-4 -0.0417,-8.7e-4 -0.0625,0 z m 21.53125,16.71875 c 0.0829,2.81982 0.2285,6.28141 0.25,9.90625 10e-4,0.17027 3.4e-4,0.33199 0,0.5 -0.88185,-1.58993 -2.15414,-3.0857 -3.65625,-4.34375 -0.4652,-0.38962 -0.96408,-0.75586 -1.46875,-1.09375 1.80012,-1.57991 3.45786,-3.22003 4.875,-4.96875 z M 758.75,387 c 2.57288,-0.0276 5.33917,1.20041 7.5625,3.0625 2.54095,2.1281 4.30903,5.04577 4.40625,7.4375 -0.27444,3.14719 -0.86087,5.74109 -1.8125,7.625 -1.39584,2.7633 -3.37134,4.1108 -6.65625,4.15625 -5.65171,0.0782 -8.71006,-2.65383 -10.53125,-5.71875 -0.9106,-1.53246 -1.48329,-3.15931 -1.8125,-4.5 -0.32921,-1.34069 -0.38776,-2.46924 -0.375,-2.75 l 0.0625,-1.46875 c 0.14562,-0.70841 0.73495,-2.01198 1.09375,-2.65625 1.25608,-2.22909 3.34625,-4.51749 6.96875,-5.09375 0.35726,-0.0568 0.7262,-0.0899 1.09375,-0.0937 z m -64.3125,8.34375 c 1.09861,-0.21251 1.75316,1.32863 1.6875,4.90625 -0.0385,0.37282 -0.0963,0.69656 -0.125,1.15625 -0.0929,1.48967 -0.10859,3.32416 0.3125,4.84375 0.2216,0.79971 0.61226,1.36266 1.03125,1.71875 0.419,0.35609 0.74606,0.52881 0.90625,0.65625 0.16019,0.12744 0.25673,0.17198 0.375,0.59375 0.11827,0.42177 0.19008,1.19474 0.125,2.46875 -0.11755,2.30085 -2.79566,5.25778 -6.28125,5.25 -0.84144,-0.002 -2.87178,-0.2695 -4.46875,-1.25 -1.59697,-0.9805 -2.86252,-2.51125 -2.71875,-5.59375 0.10208,-2.18857 0.74894,-2.86755 1.65625,-3.59375 0.9073,-0.7262 2.31278,-1.38973 3.125,-3.03125 0.69712,-1.40892 0.94242,-2.71627 1.25,-3.875 0.18927,-0.71307 0.40157,-1.37269 0.71875,-2.03125 0.92461,-1.34611 1.74708,-2.09124 2.40625,-2.21875 z m 2.78125,1.21875 c 1.87445,1.39194 3.90708,2.64038 6.0625,3.71875 -2.11403,-0.69614 -4.10506,-1.56397 -5.9375,-2.59375 -0.0356,-0.41748 -0.0632,-0.7845 -0.125,-1.125 z m 35.59375,5.125 c 1.46613,-0.10258 2.55087,0.88887 2.5,1.75 -0.0411,0.69578 -0.50882,2.57055 1.09375,4 1.60969,1.43579 1.68868,2.06885 1.625,4.3125 -0.014,0.49251 -0.61001,1.76487 -1.75,2.75 -1.13999,0.98513 -2.71967,1.72547 -4.5,1.6875 -1.22422,-0.0262 -3.12146,-0.22828 -4.59375,-1.09375 -1.4723,-0.86547 -2.61933,-2.25104 -2.625,-5.15625 -0.005,-2.457 0.77478,-3.20743 1.75,-4.0625 0.48761,-0.42754 2.2872,-0.69219 2.75,-1.34375 1.23242,-2.02059 2.60967,-2.76396 3.75,-2.84375 z"
         style="font-size:medium;font-style:normal;font-variant:normal;font-weight:normal;font-stretch:normal;text-indent:0;text-align:start;text-decoration:none;line-height:normal;letter-spacing:normal;word-spacing:normal;text-transform:none;direction:ltr;block-progression:tb;writing-mode:lr-tb;text-anchor:start;baseline-shift:baseline;color:#000000;fill:#000000;fill-opacity:1;stroke:none;stroke-width:3.12600422;marker:none;visibility:visible;display:inline;overflow:visible;enable-background:accumulate;font-family:Sans;-inkscape-font-specification:Sans"
         inkscape:connector-curvature="0" />
    </g>
  </g>
  <g
     inkscape:groupmode="layer"
     id="layer11"
     inkscape:label="backspace"
     style="display:inline"
     transform="translate(0,60)">
    <g
       transform="translate(0,-164.33069)"
       style="display:inline"
       id="backspace"
       inkscape:label="#g5652">
      <path
         inkscape:connector-curvature="0"
         id="path5550"
         d="m 4.811491,233.62176 3.812496,-23.54778 15.474278,-20.40809 22.202195,-16.14706 32.742658,-11.66179 43.283092,-1.12132 26.9118,3.8125 46.64705,15.69855 20.18382,13.00734 14.57723,13.68015 14.80147,26.01472 1.34559,20.85661 -1.79412,14.80149 -7.17648,23.32352 -13.00735,17.71692 -2.69118,3.36398 0,7.84926 1.12132,5.38235 6.50368,5.60663 1.34558,7.17648 -3.81249,5.60662 -6.50367,4.03676 -6.95221,2.46691 -7.40075,-1.56986 -6.05514,-3.58822 -3.81249,-4.93385 0.22429,-7.40072 5.15811,-8.74634 0.89705,-2.69117 -10.54044,6.05516 -30.72429,6.2794 -12.11029,-0.44854 -2.69118,6.95221 -7.84926,6.50368 -6.50367,3.13971 -6.95221,-2.01837 -6.95221,-2.46693 -4.4853,4.93384 -8.97058,-0.44854 -7.624997,-2.91544 -4.261034,-4.26104 -2.242664,-5.15808 0,-7.84926 -30.499994,-9.86766 -19.062505,-10.0919 0.89705,7.84926 1.569857,6.50367 5.606623,6.95222 1.345588,6.2794 -4.709547,6.27943 -0.672806,2.91544 -10.316169,3.8125 -6.952211,-1.34559 -8.970606,-5.83089 -2.915445,-6.2794 1.345614,-6.27943 4.036765,-6.05514 4.036765,-2.24266 1.121319,-14.35293 -0.448538,-10.54044 -4.485303,-4.03677 L 9.7453571,275.55927 4.1387348,259.18794 z"
         style="fill:#fff0e8;fill-opacity:1;stroke:#000000;stroke-width:1px;stroke-linecap:butt;stroke-linejoin:miter;stroke-opacity:1" />
      <path
         style="fill:#ff401b;fill-opacity:1;stroke:none"
         d="m 227.87819,257.35899 c 0,30.95982 -23.00346,56.05773 -51.37964,56.05773 -28.37618,0 -51.37964,-25.09791 -51.37964,-56.05773 0,-30.95982 23.00346,-56.05773 51.37964,-56.05773 28.37618,0 51.37964,25.09791 51.37964,56.05773 z"
         id="path5546"
         inkscape:connector-curvature="0" />
      <path
         inkscape:connector-curvature="0"
         id="path5552"
         d="m 79.491656,328.03724 c 0,0 -32.29412,-14.80147 -33.863977,-14.80147 -1.569858,0 -4.261034,-5.15811 -5.158085,-5.60662 -0.897075,-0.44854 -4.036765,-4.70958 -4.036765,-4.70958 0,0 -3.139714,-3.36395 -4.93384,-5.38235 -1.794101,-2.01837 -4.036765,-7.17645 -4.036765,-7.17645 l -7.849261,-13.90442 -4.485303,-14.1287 -1.345589,-8.52206 -1.569857,-15.24999 2.242664,-12.7831 2.691177,-9.41912 5.830891,-10.54043 6.055135,-9.64339 8.07353,-8.07353 10.316194,-10.09193 10.764707,-10.0919 17.716917,-4.4853 45.525731,-3.36396 50.23531,9.41912 15.47428,6.95219 c 0,0 -14.12892,0.28719 -15.0804,0.12863 -0.95147,-0.15857 -9.67332,0.47574 -9.67332,0.47574 l -7.92896,0.95148 -10.30764,3.013 -10.46623,4.75737 -9.67332,6.02601 -10.94196,8.56327 -7.6118,10.46623 -9.514748,17.12654 -3.488741,14.90644 -1.744371,13.16207 2.695845,19.50523 6.026007,19.18808 15.065018,19.18807 12.05201,9.99049 c 0,0 18.71234,8.72185 19.50524,8.72185 0.79289,0 -1.58579,3.013 -1.58579,3.013 l -12.84491,-1.74437 -8.08754,1.11006 -4.59879,-3.17159 -3.8059,-6.34316 -3.33017,-8.72185 -4.44021,-1.74437 -2.37869,1.11005 -3.013,5.23311 -1.11006,3.96448 -2.695841,3.48874 -1.427212,1.90295 -4.281636,0.15858 z"
         style="fill:#6bbec7;fill-opacity:1;stroke:#000000;stroke-width:1px;stroke-linecap:butt;stroke-linejoin:miter;stroke-opacity:1" />
      <path
         transform="translate(0,104.33069)"
         inkscape:connector-curvature="0"
         id="path5650"
         d="m 160.86679,175.57701 c 0,0 0.17678,9.54594 0.0884,9.8995 -0.0884,0.35355 2.2981,6.62912 2.2981,6.62912 0,0 2.65165,4.15425 3.0052,4.41942 0.35356,0.26516 5.39169,3.09359 6.0988,3.27037 0.7071,0.17678 4.68458,0 4.68458,0 l 6.45235,-3.44715 5.83363,-9.63433 0.88388,-5.92202 0.61872,-5.12652 -3.71231,-0.35355 -4.33103,-1.41422 -2.82842,-3.18198 -3.88909,-4.68458 -1.5026,3.18198 -3.97748,4.33103 -8.39689,2.20971 z"
         style="fill:#df0800;fill-opacity:1;stroke:#000000;stroke-width:1px;stroke-linecap:butt;stroke-linejoin:miter;stroke-opacity:1" />
      <path
         id="path5457"
         d="m 107.51665,156.66118 c -21.707151,0 -48.226326,3.40661 -69.77482,16.49223 C 16.193362,186.239 -2.8687499e-6,209.44692 -2.8687499e-6,246.81341 -2.8687499e-6,269.279 9.5186524,287.71026 24.659052,301.99895 l -1.982239,19.90168 c -7.615782,7.20812 -9.499677,15.1438 -6.739613,21.24961 2.860717,6.32847 9.906679,10.14906 17.919442,10.14906 6.347859,0 13.535705,-3.15694 17.126546,-9.1183 1.79542,-2.98068 2.496847,-6.72271 1.506502,-10.70409 -0.922855,-3.71002 -3.377305,-7.55953 -7.37393,-11.49699 l -0.317158,-5.07453 c 12.977913,7.49384 27.899499,13.0486 43.76784,16.80939 -0.830574,5.51792 0.897076,10.42712 4.043768,13.87567 3.974754,4.35606 9.89336,6.69453 15.62004,6.73962 3.48996,0.0274 7.46809,-0.85864 11.02125,-3.64732 0.69993,-0.54935 1.24717,-1.52914 1.90295,-2.22011 0.0853,0.14589 0.0599,0.33603 0.15858,0.47574 1.19401,1.69131 3.06867,2.52886 4.99525,2.93371 1.92657,0.40485 4.11392,0.47624 6.58103,0.47574 3.54116,-7.1e-4 7.07319,-1.25197 10.30764,-3.88519 2.60933,-2.1243 5.13246,-5.13246 7.69109,-9.1183 15.35901,-0.70105 30.60575,-3.06466 44.48145,-8.08754 -0.60232,1.32144 -1.02295,2.62765 -1.26864,3.88519 -0.79533,4.07097 0.43007,7.70301 2.61656,10.30764 4.37298,5.20927 11.50462,7.18425 16.01649,7.21535 4.98451,0.0345 12.67656,-2.07827 17.44371,-7.21535 2.38355,-2.56852 3.90373,-6.21302 3.09229,-10.22835 -0.76524,-3.78674 -3.53444,-7.73298 -8.24612,-11.89343 -0.16517,-0.68337 -1.06324,-4.57804 -0.95147,-8.88044 C 239.83449,300.07801 250,278.24839 250,246.81341 c 0,-28.90128 -20.43908,-51.64539 -48.04948,-66.8411 -27.61038,-15.19571 -62.72616,-23.31113 -94.43387,-23.31113 z m 0,7.6118 c 20.24292,0 42.17867,3.53512 62.3216,10.14906 -0.63008,-0.0152 -1.28886,-0.0792 -1.90295,-0.0792 -40.39386,0 -78.655252,36.37965 -78.655252,81.2718 0,23.93 8.185906,43.68947 21.566762,57.72281 -0.90687,-0.52159 -2.02032,-0.86044 -3.33016,-0.87219 -7.566028,-0.0677 -7.19617,16.04215 -11.179831,15.2236 -17.511246,-3.5981 -33.939638,-9.40009 -47.732318,-17.36442 -2.334386,-1.34794 -4.565379,-2.73915 -6.739613,-4.20234 C 25.740739,289.62963 14.106055,266.02113 14.589277,241.73901 15.085211,216.81808 28.22693,190.9041 62.797333,170.3784 77.66962,165.80752 93.57021,164.2731 107.51665,164.2731 z M 46.463683,177.0386 C 21.61281,196.39482 11.306588,219.35251 10.862668,241.65959 10.485858,260.59399 16.969816,278.894 27.196318,294.07 14.882534,281.49226 7.6117954,265.82325 7.6117954,246.81341 c 0,-35.2136 14.4319696,-55.21791 34.0945136,-67.15826 1.548519,-0.94036 3.144357,-1.77915 4.757374,-2.61655 z m 121.471617,1.11005 c 5.19386,0 11.02685,0.70452 17.12654,2.06153 0.052,0.0127 0.10657,-0.0127 0.15858,0 2.91248,1.26031 5.79174,2.64459 8.56328,4.04377 -5.4054,-0.89464 -11.02816,-1.34793 -16.80939,-1.34793 -36.17672,0 -70.40914,33.29086 -70.40914,74.37362 0,40.54186 25.26214,67.87889 58.27783,73.26356 -4.06284,0.5075 -8.14701,0.79307 -12.28988,1.03076 -34.04557,-6.40188 -59.467173,-34.21574 -59.467173,-75.9594 0,-42.72005 36.751363,-77.46591 74.849353,-77.46591 z m 9.03901,8.56327 c 10.70422,0 20.71018,1.52668 29.57501,4.83667 15.00196,9.69748 26.41339,21.61299 32.03298,35.52172 1.97392,6.13755 3.33427,12.97256 3.88519,20.61529 -0.21516,34.90164 -13.02917,55.30814 -31.9537,67.71329 -8.64735,5.66843 -18.69117,9.59774 -29.49571,12.21059 -1.34328,0.0855 -2.6803,0.15858 -4.04377,0.15858 -36.91695,0 -66.60324,-26.90184 -66.60324,-70.48842 0,-38.90989 32.7216,-70.56772 66.60324,-70.56772 z m 18.15731,62.48018 c 0,7.2457 2.35047,16.79543 12.1313,16.65081 8.74898,-0.1294 11.97273,-9.32582 11.97273,-16.57152 -18.53935,-0.0969 -6.88305,-0.0896 -24.10403,-0.0792 z m -60.26007,0.15858 c 0,7.2457 2.35047,16.79543 12.1313,16.65081 8.74898,-0.1294 11.97273,-9.32582 11.97273,-16.57152 -18.53935,-0.0969 -6.88305,-0.0896 -24.10403,-0.0792 z m 40.91341,17.68157 a 1.9031399,1.9031399 0 0 0 -1.42721,1.42722 c -1.46146,5.91632 -5.96435,9.1358 -10.38693,9.67332 -4.42258,0.53752 -8.51702,-1.3533 -9.83191,-6.34316 a 1.9031399,1.9031399 0 1 0 -3.64732,0.95147 c 1.23332,4.68024 4.62519,7.53271 8.56328,8.64257 -0.0469,2.58313 -0.2276,7.98424 1.34792,13.24135 0.87031,2.90393 2.28694,5.82628 4.67808,8.00825 2.39115,2.18197 5.73927,3.56803 9.99049,3.56803 6.6722,0 11.45426,-5.01103 14.27212,-10.54551 2.42159,-4.75621 3.57711,-10.06803 3.56803,-14.19284 4.10124,-1.035 7.68244,-3.97297 8.95972,-8.72185 a 1.9031399,1.9031399 0 1 0 -3.64732,-0.95147 c -1.30195,4.84059 -5.51898,6.71157 -9.99048,6.18458 -4.4715,-0.52699 -8.87374,-3.61783 -10.14907,-9.43545 a 1.9031399,1.9031399 0 0 0 -2.14082,-1.50651 1.9031399,1.9031399 0 0 0 -0.15858,0 z m 0.39645,7.05678 c 2.60704,4.48647 7.12642,7.15729 11.65557,7.69108 0.45163,0.0533 0.89436,0.0695 1.34792,0.0792 -0.11418,3.28403 -1.20738,8.03844 -3.25087,12.05201 -2.46478,4.84103 -6.07736,8.48398 -10.86267,8.48398 -3.46228,0 -5.74435,-1.05717 -7.45322,-2.61655 -1.70888,-1.55938 -2.82842,-3.79601 -3.56803,-6.26388 -1.25734,-4.19537 -1.22388,-8.74953 -1.18935,-11.57627 0.53103,-0.003 1.05662,-0.0152 1.5858,-0.0792 4.53977,-0.55178 9.04974,-3.21159 11.73485,-7.77037 z m -143.276243,27.3549 c 2.917425,0.0972 6.538661,4.52688 6.660323,12.21059 l 0.555027,9.43546 0,1.03076 0.792896,0.71361 c 4.054424,3.77707 5.979727,7.09584 6.660324,9.8319 0.680596,2.73606 0.233428,4.93103 -0.951475,6.8982 -2.369858,3.93431 -8.25124,6.66032 -12.76562,6.66032 -6.378459,0 -11.467352,-3.11551 -13.320647,-7.21535 -1.853296,-4.09984 -1.041751,-9.68119 6.263875,-16.17507 l 0.713606,-0.63432 0.07916,-0.95147 1.744371,-17.04726 c 0.301478,-3.33874 1.817595,-4.81563 3.56803,-4.75737 z m 79.923883,13.71709 c 7.64953,7.45817 16.77493,13.22446 26.95845,16.88868 -5.68634,0 -11.39671,0.051 -17.04726,-0.63432 -2.15774,-0.26157 -4.21716,-2.25398 -5.39169,-4.99524 -1.54131,-3.59734 -2.29074,-8.32688 -4.5195,-11.25912 z m 107.35807,0.87219 c -0.4406,4.20148 0.0792,9.19758 0.0792,9.19758 l 0.15858,0.7929 0.63432,0.47574 c 4.76263,4.01763 6.7355,7.29885 7.21535,9.67332 0.47985,2.37448 -0.23343,4.07463 -1.82366,5.78814 -3.18026,3.42704 -10.49274,5.65126 -13.63781,5.62956 -2.7205,-0.0178 -9.39303,-2.03529 -12.21059,-5.39169 -1.40879,-1.6782 -2.09923,-3.47714 -1.58579,-6.10529 0.4201,-2.15036 1.02064,-5.78845 4.91595,-8.00825 2.97769,-1.69682 5.52553,-6.39145 8.95972,-8.64256 1.53903,-1.00887 4.40351,-2.13336 5.86743,-3.25088 l 1.42721,-0.15857 z m -112.51189,0.0793 c 4.55084,0.082 4.81456,9.0071 7.92895,14.35142 1.23893,2.126 4.07204,2.97012 5.15383,4.44021 0.83399,1.13332 1.30217,2.80102 0.79289,3.96448 -1.62116,3.80902 -3.52058,6.23962 -5.47098,7.77038 -2.54899,2.00056 -5.22167,2.63726 -7.84967,2.61655 -4.34308,-0.0343 -9.049282,-1.95755 -11.893431,-5.07453 -2.207066,-2.41877 -3.563742,-5.15785 -2.695845,-9.91119 0.331697,-2.52431 3.885595,-0.77496 6.184586,-4.20235 3.23486,-4.82261 4.21442,-14.02043 7.84967,-13.95497 z m 18.2366,20.13955 c 4.35321,0.24409 11.11018,0.47574 15.46146,0.47574 1.57818,0 3.17524,-0.0502 4.75738,-0.0792 -1.6118,2.1583 -4.74571,6.67824 -6.18459,7.84967 -2.51141,2.04458 -4.64066,2.77465 -7.05677,2.77513 -2.33763,4.6e-4 -4.20783,-0.13092 -5.47098,-0.39645 -2.24946,-0.56692 -4.8592,-1.12441 -5.70885,-2.53726 0.17456,-1.04792 3.52906,-6.32855 4.20235,-8.08754 z"
         style="font-size:medium;font-style:normal;font-variant:normal;font-weight:normal;font-stretch:normal;text-indent:0;text-align:start;text-decoration:none;line-height:normal;letter-spacing:normal;word-spacing:normal;text-transform:none;direction:ltr;block-progression:tb;writing-mode:lr-tb;text-anchor:start;baseline-shift:baseline;color:#000000;fill:#000000;fill-opacity:1;stroke:none;stroke-width:3.17550802;marker:none;visibility:visible;display:inline;overflow:visible;enable-background:accumulate;font-family:Sans;-inkscape-font-specification:Sans"
         inkscape:connector-curvature="0" />
    </g>
  </g>
  <g
     inkscape:groupmode="layer"
     id="layer8"
     inkscape:label="fail"
     style="display:inline"
     transform="translate(0,-104.33069)">
    <g
       id="fail"
       transform="matrix(2.5125628,0,0,2.5125628,-197.39321,-1450.3682)"
       inkscape:label="#g5406">
      <path
         inkscape:connector-curvature="0"
         id="path5350-8"
         d="m 80.713465,664.12521 7.071068,-14.14214 14.760857,-7.15946 c 0,0 8.66206,-2.38648 10.07627,-2.56326 1.41421,-0.17678 19.44543,-1.41421 19.44543,-1.41421 l 16.617,2.03293 10.60661,4.24264 11.22532,9.54594 5.65685,13.08148 0.26517,9.89949 -3.53554,12.90471 -5.39169,7.15945 -1.59099,1.5026 1.06066,4.77297 2.2981,3.88909 1.59099,2.74004 -1.67938,3.97748 -2.82843,2.12132 -3.18198,0.17677 -4.06586,-1.85615 -1.85616,-2.38649 -0.0884,-2.12132 1.5026,-2.82842 1.59099,-1.85616 -1.14905,-2.38649 -9.45755,3.88909 -7.68979,1.85616 -2.38649,0.0884 -1.06066,2.38648 -1.5026,2.47487 -2.29809,1.85616 -3.00521,0 -2.47486,-0.7955 -1.14905,-0.88388 -2.12132,2.38649 -1.94454,0.53033 -2.82843,-0.26517 -3.0052,-0.79549 -1.67938,-1.94455 -0.97227,-1.94454 0.26516,-3.0052 -8.13173,-1.59099 -10.341433,-4.06587 -0.97227,-0.97227 -0.0884,2.56326 1.5026,2.12132 1.67938,2.56326 -0.35356,2.74004 -1.32582,2.56326 -3.09359,1.59099 -3.53554,-0.53033 -3.62392,-2.29809 -1.06066,-2.74004 0.176776,-1.94454 1.325826,-1.67938 1.502601,-0.97228 0.618719,-2.47487 0.53033,-5.92202 -4.507806,-4.15425 -4.507805,-7.07107 -1.856156,-9.54594 0.265165,-6.54074 z"
         style="fill:#fff0e8;fill-opacity:1;stroke:none" />
      <path
         transform="matrix(1.0154185,0,0,1.0517928,25.498587,581.41673)"
         d="M 141.50974,88.972122 A 20.064156,22.185474 0 0 1 121.44559,111.1576 20.064156,22.185474 0 0 1 101.38143,88.972122 20.064156,22.185474 0 0 1 121.44559,66.786648 20.064156,22.185474 0 0 1 141.50974,88.972122 Z"
         sodipodi:ry="22.185474"
         sodipodi:rx="20.064156"
         sodipodi:cy="88.972122"
         sodipodi:cx="121.44559"
         id="path5348-7"
         style="fill:#ff401b;fill-opacity:1;stroke:none"
         sodipodi:type="arc" />
      <path
         inkscape:connector-curvature="0"
         id="path5352-8"
         d="m 104.76072,641.68723 -4.5,3.3125 -4.312497,3.8125 -4.375,4.75 -3.5625,4.8125 -3.25,9.125 -0.5625,5.125 0.1875,5.75 1.5625,6.1875 4.1875,8.75 4.4375,5.8125 4.5,4.9375 15.999997,5.375 1.5625,-0.25 1.3125,-1.625 1.5625,-0.5625 0.3125,-0.1875 0.1875,-3.75 1.25,-4.25 1.0625,-0.625 1.375,0 0.8125,1.25 0.875,2.625 0.3125,3.9375 0.4375,0.875 1.25,0.875 1.1875,1.5 0.6875,0.1875 9.6875,-0.3125 3.875,-0.875 c 0,0 -3.3125,-1.0625 -3.5625,-1.125 -0.25,-0.0625 -7.5,-2.6875 -7.5,-2.6875 0,0 -3.4375,-2.8125 -3.75,-3 -0.3125,-0.1875 -4.5,-3.3125 -4.5,-3.3125 l -3,-4.75 -3,-5.1875 -2.4375,-9.5625 0.25,-6.3125 1.4375,-8.625 4.4375,-8.6875 5.5625,-6.375 6.1875,-4 4.3125,-1.6875 6.625,-1.8125 1.875,-0.6875 -13.125,-1.5 -18.8125,1.1875 z"
         style="fill:#6bbec7;fill-opacity:1;stroke:#000000;stroke-width:0.398px;stroke-linecap:butt;stroke-linejoin:miter;stroke-opacity:1" />
      <path
         id="path4721-4"
         transform="translate(0,164.33069)"
         d="m 128.6875,473.15625 c -19.175,0 -31.734224,4.02231 -39.53125,10.8125 -7.797026,6.79019 -10.59375,16.24876 -10.59375,26.375 0,10.27897 4.680952,18.77328 11.5,24.875 -0.06584,0.68272 -0.165655,1.58975 -0.28125,2.53125 -0.112492,0.91623 -0.239627,1.84348 -0.375,2.53125 -0.06769,0.34388 -0.135514,0.61963 -0.1875,0.78125 -0.0073,0.0226 0.19947,0.21713 -0.03125,0.0312 -1.70233,1.28923 -2.766317,2.83944 -3.1875,4.34375 -0.442115,1.57907 -0.120874,2.64987 0.625,3.9375 1.491748,2.57526 3.971426,3.92903 7.125,3.90625 2.977212,-0.0215 5.228656,-1.36793 6.46875,-3.90625 1.2329,-2.52358 0.30285,-6.26153 -2.875,-8.75 -0.01069,-0.0228 -0.02332,-0.0276 -0.03125,-0.0937 4.83498,2.48357 11.73602,4.67507 17.6875,5.75 0.13429,2.24316 0.70844,3.94189 1.90625,5.3125 1.44653,1.6552 3.08878,2.31218 5.53125,2.34375 2.31457,0.0299 3.53165,-0.27611 4.59375,-1.0625 0.53511,-0.3962 1.25428,-1.25589 1.5625,-1.6875 1.20258,1.48651 3.1366,1.21952 4.53125,1.28125 3.84659,0.17028 5.82233,-2.09728 6.59375,-5.625 5.29249,-0.71162 10.33392,-1.9751 14.65625,-3.6875 1.61476,-0.47675 3.74983,-1.08029 5.25,-1.8125 -1.5344,1.22791 -2.62609,2.7378 -3,4.15625 -0.41634,1.57939 -0.0956,2.73371 0.6875,4 1.5661,2.53257 4.29347,3.83521 7.4375,3.8125 3.00358,-0.0217 5.22842,-1.42253 6.4375,-4.03125 1.19136,-2.57049 0.76939,-5.79042 -2.34375,-8.28125 0.001,0.002 4e-5,-0.0317 0,-0.0312 -0.0161,-0.0219 -0.0293,-0.0778 -0.0625,-0.15625 -0.077,-0.18096 -0.15693,-0.49029 -0.25,-0.84375 -0.18614,-0.70691 -0.38668,-1.64365 -0.53125,-2.5625 -0.14458,-0.91885 -0.36427,-1.70628 -0.4375,-2.375 0.59519,-0.61946 1.57626,-1.48803 2.125,-2.15625 5.40787,-6.02964 8.375,-13.73107 8.375,-22.53125 0,-10.86599 -4.33407,-20.33188 -12.71875,-26.90625 -0.78273,-0.61373 -1.61766,-1.18693 -2.46875,-1.75 -0.28646,-0.19514 -0.58242,-0.3771 -0.875,-0.5625 -0.53406,-0.33841 -1.07146,-0.66379 -1.625,-0.96875 -0.0528,-0.0291 -0.10329,-0.065 -0.15625,-0.0937 -0.17191,-0.0955 -0.35698,-0.18764 -0.53125,-0.28125 -0.0205,-0.0106 -0.0419,-0.0206 -0.0625,-0.0312 -7.93119,-4.24389 -18.28869,-6.59375 -30.9375,-6.59375 z m 0,3 c 4.2092,0 8.1111,0.30116 11.75,0.8125 -14.78947,2.8274 -26.03125,16.7203 -26.03125,33.4375 0,8.78453 3.09723,16.81032 8.1875,22.84375 -2.79251,0.031 -3.02685,4.15949 -3.25,8.6875 -0.97084,0.2333 -1.77424,0.71931 -2.3125,1.75 -6.4048,-0.96142 -12.25954,-2.73574 -17.28125,-5.28125 -0.01157,-0.009 -0.01969,-0.0226 -0.03125,-0.0312 -6.449197,-4.80857 -12.45232,-13.34212 -14.25,-23 -2.176411,-11.69272 1.633116,-25.04084 18.09375,-35.875 6.48897,-2.12303 14.72559,-3.34375 25.125,-3.34375 z M 146,478 c 0.0416,0 0.0834,-1.8e-4 0.125,0 1.94703,0.44995 3.81262,0.99103 5.5625,1.59375 -0.72433,-0.0616 -1.44895,-0.0937 -2.1875,-0.0937 -15.53222,0 -28.15625,13.86306 -28.15625,30.96875 0,17.10569 12.62403,30.96875 28.15625,30.96875 0.28499,0 0.56078,-0.0221 0.84375,-0.0312 -1.59089,0.51769 -3.27137,0.9815 -5,1.375 -16.3653,-0.37383 -29.5,-14.70964 -29.5,-32.375 C 115.84375,492.50588 129.33156,478 146,478 z m 3.5,3.0625 c 3.6936,0 7.20842,0.82573 10.40625,2.3125 0.008,0.005 0.024,-0.005 0.0312,0 1.26898,0.76417 2.45628,1.57012 3.5625,2.4375 7.69374,6.03261 11.5625,14.45014 11.5625,24.53125 0,10.40574 -4.29283,18.78997 -12.21875,24.75 -1.72859,1.29984 -3.6438,2.47789 -5.71875,3.53125 -2.42005,0.79141 -4.96937,1.25 -7.625,1.25 -14.7744,0 -26.71875,-13.16775 -26.71875,-29.40625 0,-16.2385 11.94435,-29.40625 26.71875,-29.40625 z m -51.5625,0.71875 C 85.097572,492.24381 81.960087,504.69699 84,515.65625 c 1.302049,6.99515 4.646741,13.37725 8.84375,18.3125 -7.070108,-5.67528 -11.28125,-13.49077 -11.28125,-23.625 0,-9.58342 2.527988,-17.99886 9.5625,-24.125 1.904244,-1.65835 4.169184,-3.13473 6.8125,-4.4375 z m 34.71875,25.03125 c 0,3.05483 1.84448,7.09375 4.3125,7.09375 2.46802,0 4.46875,-4.00767 4.46875,-7.0625 -7.87752,-0.017 -3.00855,0.008 -8.78125,-0.0312 z m 23.875,0.0625 c 0,3.05483 2.00073,6.96875 4.46875,6.96875 2.46802,0 4.40625,-3.91392 4.40625,-6.96875 -7.72284,0.005 -1.06937,-0.027 -8.875,0 z m -6.375,5.75 c -1.09239,0.0292 -2.26071,0.47946 -3.28125,1.5 a 0.75130096,0.75130096 0 1 0 1.0625,1.0625 c 1.7995,-1.7995 3.63564,-1.14384 4.34375,-0.0625 0.35406,0.54067 0.42725,1.16713 0.0625,1.84375 -0.36475,0.67662 -1.28056,1.46657 -3.09375,2.03125 a 0.750075,0.750075 0 0 0 -0.0625,1.40625 c 1.85012,0.82053 2.72595,1.72144 3.03125,2.4375 0.3053,0.71606 0.1445,1.29951 -0.28125,1.84375 -0.42575,0.54424 -1.17554,0.96184 -1.9375,1.0625 -0.76196,0.10066 -1.51112,-0.0876 -2.125,-0.71875 a 0.75130096,0.75130096 0 1 0 -1.0625,1.0625 c 0.95501,0.98192 2.21866,1.30901 3.375,1.15625 1.15634,-0.15276 2.24182,-0.7357 2.9375,-1.625 0.69568,-0.8893 0.98518,-2.16377 0.46875,-3.375 -0.38353,-0.89951 -1.31683,-1.69173 -2.53125,-2.4375 1.20812,-0.5882 2.1423,-1.28755 2.59375,-2.125 0.6165,-1.14363 0.49045,-2.43516 -0.125,-3.375 -0.61545,-0.93984 -1.69016,-1.58168 -2.90625,-1.6875 -0.15201,-0.0132 -0.31269,-0.004 -0.46875,0 z M 122.875,534.40625 c 2.52197,0.11679 2.24607,7.43559 2.3125,8.71875 2.2522,-0.12263 2.875,2.28125 2.875,2.28125 -0.003,0.97726 0.26462,3.62531 -0.5,3.96875 -0.62466,0.8982 -1.12107,1.34564 -1.625,1.71875 -0.50392,0.37311 -1.35853,0.71357 -3.375,0.6875 -1.93863,-0.0251 -3.30235,-0.57641 -4.21875,-1.625 -0.68259,-0.78107 -1.61148,-1.96362 -1.1875,-3.46875 0.76769,-2.72537 1.54417,-3.56423 3.15625,-3.6875 0.30287,-2.47581 0.0562,-8.70982 2.5625,-8.59375 z M 92.65625,534.625 c 0.325751,0.024 0.776773,0.24767 1.40625,0.75 1.653625,1.31962 1.67247,3.52743 1.5625,4.8125 0.01603,0.63631 0.05678,0.49263 0.125,1.0625 0.06822,0.56987 0.264041,1.28533 0.90625,1.78125 2.550508,1.96954 2.623695,3.77855 1.84375,5.375 -0.779945,1.59645 -2.750609,2.89204 -4.71875,2.90625 -2.225742,0.0161 -4.599776,-1.32947 -5.53125,-2.9375 -0.465737,-0.80402 -0.628578,-1.62557 -0.375,-2.53125 0.253578,-0.90568 0.972618,-1.9622 2.5,-3.0625 0.668276,-0.48141 0.583832,-0.77145 0.6875,-1.09375 0.103668,-0.3223 0.171512,-0.66374 0.25,-1.0625 0.156977,-0.79753 0.289823,-1.77048 0.40625,-2.71875 0.05864,-0.47764 0.04447,-0.49721 0.09375,-0.9375 0.04355,-0.76496 -0.133504,-2.41582 0.84375,-2.34375 z m 72.28125,1.46875 c 0.42988,-0.0123 0.73926,0.214 0.78125,0.8125 0.0393,0.27951 0.048,0.49083 0.0937,0.78125 0.15196,0.96578 0.33822,1.96075 0.5625,2.8125 0.11214,0.42588 0.22259,0.79791 0.375,1.15625 0.15241,0.35834 0.28355,0.7023 0.75,1.0625 2.54106,1.96225 2.65471,3.88019 1.875,5.5625 -0.77971,1.68231 -2.71448,3.01723 -4.65625,3.03125 -2.23529,0.0161 -4.70537,-1.28678 -5.6875,-2.875 -0.49106,-0.79411 -0.66998,-1.58683 -0.4375,-2.46875 0.23248,-0.88192 0.91102,-1.9316 2.4375,-3.03125 0.76207,-0.54897 0.7567,-1.20658 0.78125,-1.6875 0.0246,-0.48092 -0.03,-0.93618 -0.0937,-1.375 -0.002,-0.0114 0.002,-0.0199 0,-0.0312 -0.45124,-1.44833 1.92912,-3.71309 3.21875,-3.75 z m -39.4375,0.1875 c 4.0769,3.74041 9.05932,6.37516 14.53125,7.5 -3.55096,0.50569 -6.61516,0.75 -10.625,0.75 -0.13702,0 -0.25,0.032 -0.4375,0 -0.45066,-1.52751 -1.53978,-1.98107 -2.71875,-2.4375 -0.0326,-2.48392 -0.31087,-4.38643 -0.75,-5.8125 z m 3.75,9.1875 c 2.97116,0 5.77115,0.21828 9.03125,0.0312 -0.52534,2.56978 -2.47227,5.4825 -5.28125,5.34375 -1.55103,-0.0766 -2.92468,-0.40646 -3.625,-1.5 -0.46246,-0.72212 -0.20615,-3.19879 -0.125,-3.875 z"
         style="font-size:medium;font-style:normal;font-variant:normal;font-weight:normal;font-stretch:normal;text-indent:0;text-align:start;text-decoration:none;line-height:normal;letter-spacing:normal;word-spacing:normal;text-transform:none;direction:ltr;block-progression:tb;writing-mode:lr-tb;text-anchor:start;baseline-shift:baseline;color:#000000;fill:#000000;fill-opacity:1;stroke:none;stroke-width:3;marker:none;visibility:visible;display:inline;overflow:visible;enable-background:accumulate;font-family:Sans;-inkscape-font-specification:Sans"
         inkscape:connector-curvature="0" />
    </g>
  </g>
  <g
     inkscape:groupmode="layer"
     id="layer6"
     inkscape:label="verify"
     style="display:inline"
     transform="translate(0,-104.33069)">
    <g
       id="verify"
       inkscape:label="#g6033">
      <path
         inkscape:connector-curvature="0"
         id="path5350-1"
         d="m 5.37749,218.25594 17.766502,-35.53302 37.087573,-17.98859 c 0,0 21.76397,-5.99618 25.317261,-6.44035 3.553292,-0.44417 48.857884,-3.55329 48.857884,-3.55329 l 41.75125,5.10786 26.64978,10.6599 28.20432,23.98477 14.21319,32.86804 0.66625,24.87309 -8.88326,32.4239 -13.54696,17.98857 -3.99746,3.77537 2.66497,11.99239 5.77412,9.77158 3.99746,6.88452 -4.21954,9.99367 -7.10661,5.32995 -7.99493,0.44415 -10.21573,-4.6637 -4.66371,-5.9962 -0.22211,-5.32995 3.77537,-7.10658 3.99746,-4.66372 -2.88706,-5.99621 -23.76268,9.77158 -19.32108,4.66372 -5.99621,0.22211 -2.66498,5.99618 -3.77537,6.21827 -5.7741,4.66372 -7.55078,0 -6.21825,-1.99874 -2.88706,-2.22081 -5.32995,5.99621 -4.88578,1.33249 -7.10661,-0.66626 -7.550753,-1.99872 -4.219548,-4.8858 -2.44289,-4.88578 0.666232,-7.55076 -20.431483,-3.99746 -25.983492,-10.21575 -2.44289,-2.44289 -0.22211,6.44035 3.775377,5.32995 4.219548,6.44035 -0.888342,6.88452 -3.331206,6.44036 -7.772839,3.99746 -8.883267,-1.33249 -9.105326,-5.77409 -2.664975,-6.88453 0.444161,-4.88578 3.331221,-4.21954 3.775379,-2.44292 1.554571,-6.21826 1.332487,-14.87945 L 18.924369,293.54151 7.5982262,275.77501 2.9345176,251.79023 3.6007613,235.35621 z"
         style="fill:#fff0e8;fill-opacity:1;stroke:none" />
      <path
         transform="matrix(2.5513027,0,0,2.6426955,-133.35336,10.445686)"
         d="M 141.50974,88.972122 A 20.064156,22.185474 0 0 1 121.44559,111.1576 20.064156,22.185474 0 0 1 101.38143,88.972122 20.064156,22.185474 0 0 1 121.44559,66.786648 20.064156,22.185474 0 0 1 141.50974,88.972122 Z"
         sodipodi:ry="22.185474"
         sodipodi:rx="20.064156"
         sodipodi:cy="88.972122"
         sodipodi:cx="121.44559"
         id="path5348-1"
         style="fill:#ff401b;fill-opacity:1;stroke:none"
         sodipodi:type="arc" />
      <path
         inkscape:connector-curvature="0"
         id="path5352-3"
         d="m 65.797736,161.8791 -11.306533,8.32287 -10.835427,9.57914 -10.992462,11.93468 -8.951005,12.0917 -8.165829,22.92714 -1.413317,12.87688 0.471106,14.44724 3.925879,15.54648 10.521357,21.98493 11.149497,14.60427 11.306533,12.40578 40.201005,13.50502 3.925879,-0.62814 3.297739,-4.08291 3.925882,-1.41332 0.78517,-0.4711 0.47111,-9.42212 3.1407,-10.67839 2.6696,-1.57035 3.45477,0 2.04146,3.1407 2.19849,6.59548 0.78518,9.89322 1.09925,2.19849 3.1407,2.19849 2.98367,3.76885 1.72738,0.4711 24.34046,-0.78517 9.73618,-2.1985 c 0,0 -8.32287,-2.66959 -8.95101,-2.82663 -0.62814,-0.15703 -18.84422,-6.75251 -18.84422,-6.75251 0,0 -8.63693,-7.06658 -9.42211,-7.53769 -0.78517,-0.47111 -11.30653,-8.32286 -11.30653,-8.32286 l -7.53769,-11.93468 -7.537688,-13.03392 -6.124372,-24.02638 0.62814,-15.86055 3.611809,-21.67086 11.149501,-21.82788 13.97613,-16.01759 15.54648,-10.05025 10.83543,-4.23995 16.64573,-4.55402 4.71105,-1.72739 -32.97739,-3.76884 -47.267584,2.98366 z"
         style="fill:#6bbec7;fill-opacity:1;stroke:#000000;stroke-width:1px;stroke-linecap:butt;stroke-linejoin:miter;stroke-opacity:1" />
      <path
         id="path4721-41"
         d="m 125.94221,151.35775 c -48.178391,0 -79.734233,10.1063 -99.32475,27.16708 C 7.0269422,195.58561 -2.45e-6,219.35086 -2.45e-6,244.79368 c 0,25.82655 11.76118545,47.16904 28.89447245,62.49999 -0.165427,1.71538 -0.416219,3.99435 -0.706659,6.35993 -0.282643,2.30208 -0.602077,4.63186 -0.942211,6.35992 -0.170075,0.86402 -0.340487,1.55686 -0.471105,1.96294 -0.01834,0.0568 0.501181,0.54543 -0.07852,0.0784 -4.277211,3.23927 -6.950545,7.13427 -8.008794,10.91394 -1.110841,3.96751 -0.303703,6.65797 1.570352,9.89322 3.748111,6.4705 9.978457,9.87193 17.90201,9.81469 7.480432,-0.054 13.137319,-3.43701 16.253141,-9.81469 3.097731,-6.34066 0.760927,-15.73249 -7.223618,-21.98493 -0.02686,-0.0573 -0.05859,-0.0693 -0.07852,-0.23543 12.148186,6.24013 29.487472,11.74641 44.440955,14.44724 0.337412,5.63608 1.779984,9.90425 4.789572,13.34799 3.634485,4.15879 7.760757,5.8095 13.897617,5.88882 5.81549,0.0751 8.87349,-0.69374 11.54209,-2.6696 1.34449,-0.99548 3.15145,-3.1555 3.92588,-4.23995 3.02155,3.73495 7.8809,3.06412 11.38505,3.21922 9.66479,0.42784 14.62897,-5.26954 16.56721,-14.13316 13.29771,-1.78799 25.96462,-4.96257 36.82474,-9.26508 4.05719,-1.19786 9.42169,-2.71429 13.19096,-4.55402 -3.85528,3.0852 -6.59822,6.8789 -7.53769,10.44284 -1.04608,3.96832 -0.2402,6.86862 1.72739,10.05025 3.93492,6.36324 10.78761,9.63621 18.68718,9.57915 7.54669,-0.0545 13.13674,-3.5742 16.17463,-10.12877 2.99336,-6.45852 1.93314,-14.54879 -5.88882,-20.80716 0.003,0.005 1e-4,-0.0794 0,-0.0784 -0.0404,-0.055 -0.0736,-0.19548 -0.15704,-0.39259 -0.19346,-0.45467 -0.39429,-1.23189 -0.62814,-2.11998 -0.46769,-1.77615 -0.97156,-4.12977 -1.3348,-6.43844 -0.36326,-2.30867 -0.91525,-4.28713 -1.09924,-5.96733 1.49545,-1.55644 3.96045,-3.73877 5.33919,-5.41772 C 242.5449,286.25513 250,266.90481 250,244.7938 c 0,-27.30148 -10.88963,-51.08512 -31.95666,-67.60364 -1.96666,-1.54204 -4.06447,-2.98224 -6.20289,-4.39699 -0.71975,-0.49029 -1.46337,-0.94749 -2.19849,-1.41331 -1.34186,-0.85028 -2.69211,-1.66782 -4.08292,-2.43405 -0.13266,-0.0731 -0.25952,-0.16326 -0.39259,-0.23555 -0.43193,-0.23985 -0.89693,-0.47146 -1.3348,-0.70666 -0.0515,-0.0268 -0.10527,-0.0519 -0.15703,-0.0785 -19.92761,-10.66305 -45.95148,-16.56733 -77.73241,-16.56733 z m 0,7.53768 c 10.57588,0 20.37965,0.75669 29.52261,2.04146 -37.15948,7.10402 -65.40515,42.01081 -65.40515,84.01382 0,22.07168 7.781988,42.23699 20.57161,57.39636 -7.01638,0.0779 -7.60517,10.45098 -8.16583,21.82789 -2.43929,0.58618 -4.457895,1.80731 -5.810302,4.39698 -16.092465,-2.41563 -30.802879,-6.87372 -43.420226,-13.26947 -0.02907,-0.0226 -0.04947,-0.0568 -0.07852,-0.0784 -16.204012,-12.08184 -31.287236,-33.52292 -35.80402,-57.78895 -5.468369,-29.37869 4.103299,-62.91679 45.461684,-90.13831 16.303947,-5.33424 36.998957,-8.40139 63.128144,-8.40139 z m 43.49874,4.63254 c 0.10452,0 0.20955,-4.5e-4 0.31407,0 4.89204,1.13053 9.57945,2.49003 13.97613,4.0044 -1.81992,-0.1548 -3.64058,-0.23555 -5.49623,-0.23555 -39.02568,0 -70.74435,34.83181 -70.74435,77.81093 0,42.97912 31.71867,77.81092 70.74435,77.81092 0.71606,0 1.409,-0.0553 2.11998,-0.0784 -3.99721,1.30073 -8.21953,2.46608 -12.56282,3.45478 -41.11885,-0.93927 -74.120601,-36.9589 -74.120601,-81.34422 0,-44.97581 33.888961,-81.42274 75.769471,-81.42274 z m 8.79397,7.69473 c 9.2804,0 18.11161,2.07469 26.14636,5.8103 0.0201,0.0113 0.06,-0.0116 0.0784,0 3.18839,1.92001 6.17156,3.94502 8.951,6.12437 19.33101,15.15731 29.05151,36.30688 29.05151,61.63631 0,26.14507 -10.786,47.21097 -30.70037,62.18592 -4.3432,3.26593 -9.15528,6.22586 -14.36872,8.87249 -6.08053,1.98847 -12.48586,3.14071 -19.15829,3.14071 -37.12161,0 -67.13254,-33.0848 -67.13254,-73.88505 0,-40.80026 30.01093,-73.88505 67.13254,-73.88505 z m -129.554018,1.8059 c -32.261126,26.28784 -40.1442537,57.57724 -35.018844,85.11307 3.27148,17.57575 11.675228,33.61118 22.220477,46.0113 -17.76409,-14.2595 -28.344849,-33.8964 -28.344849,-59.35929 0,-24.07895 6.351729,-45.22327 24.026382,-60.61558 4.784532,-4.16671 10.475336,-7.8762 17.116834,-11.1495 z m 158.448488,52.76382 c -6.20105,0 -11.22801,6.22217 -11.22801,13.89761 0,7.67544 5.02696,13.89762 11.22801,13.89762 6.20106,0 11.22802,-6.22218 11.22802,-13.89762 0,-7.67544 -5.02696,-13.89761 -11.22802,-13.89761 z m -60.38002,0.15703 c -6.20106,0 -11.22802,6.22218 -11.22802,13.89762 0,7.67544 5.02696,13.89761 11.22802,13.89761 6.20105,0 11.22801,-6.22217 11.22801,-13.89761 0,-7.67544 -5.02696,-13.89762 -11.22801,-13.89762 z m -35.41143,79.30277 c 6.33661,0.29344 5.64337,18.68238 5.8103,21.9064 5.65879,-0.30811 7.22362,5.73179 7.22362,5.73179 -0.007,2.45543 0.66487,9.10882 -1.25629,9.97173 -1.56949,2.25679 -2.81677,3.38101 -4.08291,4.31847 -1.26614,0.93746 -3.41341,1.79289 -8.4799,1.72739 -4.87093,-0.0631 -8.29738,-1.44827 -10.599874,-4.08292 -1.715065,-1.96249 -4.048947,-4.93372 -2.983668,-8.71545 1.928859,-6.84766 3.879812,-8.95535 7.930272,-9.26508 0.76098,-6.22062 0.14124,-21.88397 6.43845,-21.59233 z m -75.92651,0.54962 c 0.818469,0.0603 1.95169,0.62229 3.533291,1.88442 4.154837,3.31563 4.202186,8.86289 3.925879,12.09171 0.04028,1.59877 0.142664,1.23777 0.314071,2.6696 0.171407,1.43183 0.663419,3.22947 2.27701,4.4755 6.408311,4.94859 6.592198,9.49385 4.632537,13.50503 -1.95966,4.01118 -6.911077,7.26643 -11.856155,7.30213 -5.592317,0.0405 -11.557226,-3.34037 -13.897613,-7.38065 -1.170194,-2.02015 -1.579342,-4.08435 -0.942211,-6.35993 0.63713,-2.27557 2.443763,-4.93015 6.281407,-7.69472 1.679085,-1.20957 1.466914,-1.93832 1.727387,-2.74811 0.260472,-0.8098 0.430934,-1.66769 0.62814,-2.6696 0.394415,-2.00385 0.728199,-4.44844 1.020729,-6.83103 0.147337,-1.2001 0.111734,-1.24927 0.235553,-2.35553 0.109422,-1.92201 -0.335438,-6.0699 2.119975,-5.88882 z m 181.61118,3.69033 c 1.0801,-0.0309 1.85744,0.53769 1.96294,2.04145 0.0987,0.70229 0.1206,1.23325 0.23543,1.96294 0.38181,2.42659 0.8498,4.92651 1.41331,7.06659 0.28176,1.07005 0.55927,2.0048 0.94221,2.90515 0.38294,0.90035 0.71244,1.76457 1.88443,2.6696 6.38457,4.93027 6.67012,9.74922 4.71105,13.97613 -1.95907,4.22691 -6.8203,7.58098 -11.69912,7.6162 -5.61631,0.0405 -11.82254,-3.23311 -14.2902,-7.22362 -1.23382,-1.99525 -1.68337,-3.98701 -1.09925,-6.20288 0.58412,-2.21588 2.289,-4.85327 6.12438,-7.61621 1.91474,-1.37932 1.90125,-3.03161 1.96294,-4.23995 0.0618,-1.20834 -0.0754,-2.35221 -0.23543,-3.45477 -0.005,-0.0286 0.005,-0.05 0,-0.0784 -1.13377,-3.63902 4.84703,-9.32937 8.08731,-9.42211 z m -99.0892,0.4711 c 10.24347,9.39802 22.76211,16.01799 36.51068,18.84422 -8.92201,1.27058 -16.621,1.88443 -26.69598,1.88443 -0.34428,0 -0.62814,0.0804 -1.09924,0 -1.13231,-3.83797 -3.8688,-4.97757 -6.83103,-6.12438 -0.0818,-6.241 -0.7811,-11.02118 -1.88443,-14.60427 z m 9.42211,23.08417 c 7.46523,0 14.50038,0.54832 22.69159,0.0784 -1.31995,6.45673 -6.21174,13.77512 -13.26948,13.4265 -3.89706,-0.19246 -7.34844,-1.02125 -9.10804,-3.76884 -1.16196,-1.81437 -0.51797,-8.03716 -0.31407,-9.73618 z"
         style="font-size:medium;font-style:normal;font-variant:normal;font-weight:normal;font-stretch:normal;text-indent:0;text-align:start;text-decoration:none;line-height:normal;letter-spacing:normal;word-spacing:normal;text-transform:none;direction:ltr;block-progression:tb;writing-mode:lr-tb;text-anchor:start;baseline-shift:baseline;color:#000000;fill:#000000;fill-opacity:1;stroke:none;stroke-width:3;marker:none;visibility:visible;display:inline;overflow:visible;enable-background:accumulate;font-family:Sans;-inkscape-font-specification:Sans"
         inkscape:connector-curvature="0"
         sodipodi:nodetypes="ssscscccsssscccssscscccscsscccscccsscsccccsscscccccscscccsssccsccsccssscsssscscsscssssssssssscccscsscscscssscsssssscccccsssscssscccccccscccccsscc" />
      <path
         transform="translate(0,104.33069)"
         inkscape:connector-curvature="0"
         id="path6031"
         d="m 162,167.625 0.125,5.125 1.375,8.875 3.375,6.125 c 0,0 3.625,2.5 5,2.625 1.375,0.125 5.375,0.75 5.375,0.75 L 182,189.75 c 0,0 4.875,-4 5.25,-5 0.375,-1 2.875,-8.75 3.25,-9.25 0.375,-0.5 1.125,-9.5 1.125,-9.5 0,0 -4.125,0.5 -4.875,0.125 -0.75,-0.375 -5.375,-3.875 -5.375,-3.875 l -4.25,-4.75 -2.75,4.375 -5,3.25 z"
         style="fill:#df0800;fill-opacity:1;stroke:#000000;stroke-width:1px;stroke-linecap:butt;stroke-linejoin:miter;stroke-opacity:1" />
      <path
         sodipodi:nodetypes="ccscsccssssccscsccccccssssccc"
         inkscape:connector-curvature="0"
         style="font-size:medium;font-style:normal;font-variant:normal;font-weight:normal;font-stretch:normal;text-indent:0;text-align:start;text-decoration:none;line-height:normal;letter-spacing:normal;word-spacing:normal;text-transform:none;direction:ltr;block-progression:tb;writing-mode:lr-tb;text-anchor:start;baseline-shift:baseline;color:#000000;fill:#000000;fill-opacity:1;stroke:none;stroke-width:3.17550802;marker:none;visibility:visible;display:inline;overflow:visible;enable-background:accumulate;font-family:Sans;-inkscape-font-specification:Sans"
         d="m 176.7338,258.03461 c -0.69104,0.15923 -1.26798,0.73618 -1.42721,1.42722 -1.46146,5.91632 -5.96435,9.1358 -10.38693,9.67332 -4.42258,0.53752 -8.51702,-1.3533 -9.83191,-6.34316 -0.12538,-1.07762 -1.32103,-1.89541 -2.37078,-1.62157 -1.04975,0.27385 -1.69355,1.5715 -1.27654,2.57304 1.23332,4.68024 4.62519,7.53271 8.56328,8.64257 -0.0469,2.58313 -0.2276,7.98424 1.34792,13.24135 0.87031,2.90393 2.28694,5.82628 4.67808,8.00825 2.39115,2.18197 5.73927,3.56803 9.99049,3.56803 6.6722,0 11.45426,-5.01103 14.27212,-10.54551 2.42159,-4.75621 3.57711,-10.06803 3.56803,-14.19284 4.10124,-1.035 7.68244,-3.97297 8.95972,-8.72185 0.41701,-1.00154 -0.22679,-2.29919 -1.27654,-2.57304 -1.04975,-0.27384 -2.2454,0.54395 -2.37078,1.62157 -1.30195,4.84059 -5.51898,6.71157 -9.99048,6.18458 -4.4715,-0.52699 -8.87374,-3.61783 -10.14907,-9.43545 -0.19041,-0.94318 -1.18874,-1.64571 -2.14082,-1.50651 -0.0528,-0.002 -0.10575,-0.002 -0.15858,0 z m 0.39645,7.05678 c 2.60704,4.48647 7.12642,7.15729 11.65557,7.69108 0.45163,0.0533 0.89436,0.0695 1.34792,0.0792 -0.11418,3.28403 -1.20738,8.03844 -3.25087,12.05201 -2.46478,4.84103 -6.07736,8.48398 -10.86267,8.48398 -3.46228,0 -5.74435,-1.05717 -7.45322,-2.61655 -1.70888,-1.55938 -2.82842,-3.79601 -3.56803,-6.26388 -1.25734,-4.19537 -1.22388,-8.74953 -1.18935,-11.57627 0.53103,-0.003 1.05662,-0.0152 1.5858,-0.0792 4.53977,-0.55178 9.04974,-3.21159 11.73485,-7.77037 z"
         id="path5457-9" />
    </g>
  </g>
  <g
     inkscape:groupmode="layer"
     id="layer10"
     inkscape:label="fg"
     transform="translate(0,70)"
     style="display:inline"
     sodipodi:insensitive="true" />
</svg>
